<svg width="445.00000000000006" height="454.00000000000006" xmlns="http://www.w3.org/2000/svg">
 <defs>
  <clipPath id="clip1">
   <path id="svg_1" d="m0,445.987333l444.51172,0l0,2l-444.51172,0l0,-2zm0,0"/>
  </clipPath>
  <clipPath id="clip2">
   <path id="svg_2" d="m122,2.374053l208,0l0,309.61328l-208,0l0,-309.61328zm0,0"/>
  </clipPath>
 </defs>
 <g>
  <title>background</title>
  <rect fill="none" id="canvas_background" height="456" width="447" y="-1" x="-1"/>
 </g>
 <g>
  <title>Layer 1</title>
  <g id="surface1">
   <g id="svg_26" clip-rule="nonzero" clip-path="url(#clip1)">
    <path id="svg_27" fill-rule="nonzero" fill="rgb(9.106445%,15.531921%,18.24646%)" d="m446.01172,453.323272c0,0.14453 -99.51563,0.26172 -222.24609,0.26172c-122.77344,0 -222.26563,-0.11719 -222.26563,-0.26172c0,-0.14063 99.49219,-0.25781 222.26563,-0.25781c122.73046,0 222.24609,0.11718 222.24609,0.25781"/>
   </g>
   <path id="svg_28" fill-rule="nonzero" fill="rgb(97.399902%,64.651489%,55.455017%)" d="m127.09766,140.725612c0,0 2.72265,-16.3125 3.37109,-17.55469c0.64844,-1.23828 8.16797,-8.86328 9.05469,-9.02343c0.88672,-0.15625 12.73828,-3.875 12.08203,-2.02735c-0.65625,1.84766 -8.96875,4.34375 -8.96875,4.34375l-0.78906,0.99219c0,0 7.10156,-2.3125 8.87109,-2.25c1.625,0.05078 1.91406,1.74219 0.64453,2.22656c-1.26953,0.48828 -7.53515,2.3125 -7.76562,2.70313c-0.23438,0.39062 6.97265,-1.66406 7.875,-1.62891c1.21875,0.05469 2.10156,1.59766 0.85547,2.1211c-0.73047,0.30468 -7.69532,1.90625 -7.69532,1.90625c0,0 5.8125,-0.6836 6.46875,-0.50391c1.07032,0.28906 0.98047,1.58984 -0.19531,1.90234c-0.80859,0.21094 -5.0625,0.39453 -6.14453,0.6836c0,0 -0.80469,0.6875 -0.77734,2.84375c0.03125,2.15234 -2.76954,7.89453 -2.76954,7.89453l-14.11718,5.37109"/>
   <path id="svg_29" fill-rule="nonzero" fill="rgb(96.342468%,51.127625%,37.649536%)" d="m151.59766,112.159212c0.04297,0.04687 -0.55078,0.70312 -1.7461,1.51171c-0.59375,0.40235 -1.33984,0.83594 -2.21875,1.21875c-0.88281,0.33204 -1.85937,0.66797 -2.88672,1.02344c-0.75781,0.25781 -1.49218,0.50781 -2.18359,0.73828l0.11719,-0.07031c-2.25781,2.25391 -3.95313,3.83203 -4.04297,3.75391c-0.09375,-0.08203 1.44531,-1.79688 3.66016,-4.10547l0.04296,-0.04688l0.07422,-0.02343c0.6875,-0.24219 1.41016,-0.49219 2.16016,-0.75782c1.00391,-0.33984 1.96094,-0.66406 2.87109,-0.97265c0.85547,-0.34375 1.59375,-0.72657 2.19922,-1.07813c1.21094,-0.70312 1.89453,-1.2539 1.95313,-1.1914"/>
   <path id="svg_30" fill-rule="nonzero" fill="#e0731a" d="m294.147137,317.881863l-161.42188,-16.6289c-4.9375,-0.50782 -8.52734,-4.92188 -8.01953,-9.85938l27.95703,-271.38281c0.72266,-7.01172 6.99219,-12.11328 14.00782,-11.39063l153.90234,15.85547c7.01563,0.72266 12.11328,6.99219 11.39063,14.00391l-27.95704,271.38281c-0.50781,4.9375 -4.92187,8.53125 -9.85937,8.01953"/>
   <path id="svg_31" fill-rule="nonzero" fill="#bf6216" d="m310.41016,319.932642c-0.30469,0 -0.61719,-0.01562 -0.92969,-0.05078l-16.25781,-1.67187c0.30078,0.02734 0.60156,0.04297 0.89843,0.04297c4.55079,0 8.45313,-3.44141 8.9336,-8.06641l27.95703,-271.38281c0.72266,-7.01172 -4.37891,-13.28516 -11.39063,-14.00782l-51.75781,-5.33203l68.04297,7.01172c6.57031,0.67578 11.46094,6.21875 11.46094,12.67969c0,0.4375 -0.02344,0.88281 -0.07031,1.32422l-10.49219,101.87109l-3.1211,30.30469l-1.33203,12.92187l-0.07031,0.67188l-2.11719,20.53516l-0.0664,0.65234l-2.34375,22.76953l-0.04297,0.39844l-2.08985,20.27734l-0.03125,0.3125l-6.25,60.66797c-0.47656,4.625 -4.3789,8.07031 -8.92968,8.07031"/>
   <path id="svg_32" fill-rule="nonzero" fill="rgb(61.224365%,13.98468%,21.949768%)" d="m284.15625,317.272492l-136.09766,-14.01953c-0.03906,-0.00391 -0.07812,-0.00782 -0.11718,-0.01172l136.21484,14.03125"/>
   <g stroke="null" fill-opacity="0" id="svg_33" clip-rule="nonzero" clip-path="url(#clip2)">
    <path stroke="null" id="svg_34" fill-rule="nonzero" fill="rgb(94.206238%,24.050903%,37.214661%)" d="m240.143297,371.706079l-163.757111,-16.62891c-5.004962,-0.51171 -8.650702,-4.92578 -8.131579,-9.86328l28.361474,-271.38281c0.733104,-7.01172 7.093343,-12.10937 14.206489,-11.39062l156.132755,15.85546c7.113156,0.72266 12.288528,6.9961 11.555414,14.00782l-28.361474,271.38281c-0.519123,4.9375 -4.997039,8.52734 -10.005968,8.01953"/>
   </g>
   <path id="svg_35" fill-rule="nonzero" fill="rgb(94.206238%,24.050903%,37.214661%)" d="m208.35156,271.057642l-55.66015,-5.73437c-1.32813,-0.13672 -2.29688,-1.32813 -2.16016,-2.65625l2.25781,-21.90235c0.13672,-1.33203 1.32422,-2.29687 2.65625,-2.16015l55.66016,5.73437c1.32812,0.13672 2.29687,1.32422 2.16016,2.65625l-2.25782,21.90235c-0.13672,1.32812 -1.32422,2.29297 -2.65625,2.16015"/>
   <path id="svg_36" fill-rule="nonzero" fill="#aa5717" d="m208.60156,271.069362c-0.08203,0 -0.16406,-0.0039 -0.25,-0.01172l-55.66015,-5.73437c-1.2461,-0.12891 -2.17188,-1.1836 -2.17188,-2.41016c0,-0.08203 0.00391,-0.16406 0.01172,-0.24609l1.92188,-18.66797l53.68359,-0.17188l4.96875,0.51172c1.24609,0.12891 2.17187,1.17969 2.17187,2.40625c0,0.08203 -0.0039,0.16407 -0.01171,0.25l-2.25782,21.90235c-0.1289,1.24609 -1.17968,2.17187 -2.40625,2.17187"/>
   <path id="svg_37" fill-rule="nonzero" fill="rgb(98.036194%,97.892761%,97.60437%)" d="m310.05078,115.202172l-153.29297,-15.78906l6.19532,-60.13281l153.28906,15.79297l-6.19141,60.1289"/>
   <path id="svg_38" fill-rule="nonzero" fill="rgb(9.106445%,15.531921%,18.24646%)" d="m310.05078,115.202172c0,0 0.02344,-0.36718 0.08985,-1.07031c0.07031,-0.71094 0.17187,-1.7539 0.30078,-3.11328c0.27343,-2.73828 0.67187,-6.76172 1.1875,-11.94922c1.04297,-10.36719 2.55859,-25.38281 4.4375,-44.01562l0.16015,0.19922c-38.58203,-3.95313 -93.01953,-9.53516 -153.29297,-15.71094l-0.00781,0l0.28516,-0.23438c-2.17188,21.03125 -4.26563,41.34766 -6.20313,60.12891l-0.22656,-0.27344c44.35938,4.61719 82.64453,8.60156 109.85156,11.4336c13.61328,1.43359 24.45313,2.57421 31.90235,3.35937c3.71875,0.39453 6.58984,0.70313 8.54297,0.91016c0.96875,0.10547 1.70312,0.1875 2.21093,0.24218c0.5,0.0586 0.76172,0.09375 0.76172,0.09375c0,0 -0.24219,-0.01171 -0.73437,-0.05859c-0.5,-0.04687 -1.23047,-0.11719 -2.1836,-0.21094c-1.9414,-0.1914 -4.79687,-0.47265 -8.49609,-0.83984c-7.44141,-0.75391 -18.26563,-1.84375 -31.85938,-3.21484c-27.25781,-2.77735 -65.60937,-6.6875 -110.04687,-11.21875l-0.24609,-0.02344l0.02343,-0.25c1.9336,-18.78125 4.02344,-39.10156 6.1836,-60.13281l0.02734,-0.25782l0.26172,0.02735l0.00781,0c60.26563,6.23828 114.69922,11.875 153.27344,15.87109l0.17969,0.01953l-0.01563,0.17969c-1.96484,18.66797 -3.55078,33.71484 -4.64453,44.10547c-0.55078,5.16406 -0.97656,9.16797 -1.26953,11.89453c-0.14844,1.34766 -0.25781,2.375 -0.33594,3.07812c-0.07812,0.6875 -0.125,1.03125 -0.125,1.03125"/>
   <path id="svg_39" fill-rule="nonzero" fill="rgb(94.206238%,24.050903%,37.214661%)" d="m184.15625,152.799832l-21.91406,-2.25781c-1.14453,-0.11719 -1.97656,-1.14063 -1.85938,-2.28516l2.25782,-21.91406c0.11718,-1.14453 1.14062,-1.97656 2.28515,-1.85938l21.91406,2.26172c1.14454,0.11719 1.97657,1.13672 1.85938,2.28125l-2.25781,21.91407c-0.11719,1.14453 -1.14063,1.97656 -2.28516,1.85937"/>
   <path id="svg_40" fill-rule="nonzero" fill="rgb(61.224365%,13.98468%,21.949768%)" d="m161.66406,135.815462l0.97657,-9.47266c0.11328,-1.07031 1.01562,-1.86719 2.07031,-1.86719c0.07031,0 0.14062,0.00391 0.21484,0.00781l21.91406,2.26172c1.07422,0.10938 1.8711,1.01563 1.8711,2.07032c0,0.07031 -0.00781,0.14062 -0.01172,0.21093l-0.63672,6.17578c-1.27344,-0.17968 -2.5625,-0.28906 -3.85937,-0.32812c-1.3086,-0.03516 -2.67188,-0.05469 -4.07032,-0.05469c-5.78125,0 -12.17968,0.32031 -18.01562,0.94141c-0.14844,0.01562 -0.30078,0.03515 -0.45313,0.05469"/>
   <path id="svg_41" fill-rule="nonzero" fill="rgb(9.106445%,15.531921%,18.24646%)" d="m180.13281,152.385772l-21.91406,-2.25781c-1.14453,-0.11719 -1.97656,-1.14063 -1.85937,-2.28516l2.25781,-21.91406c0.11719,-1.14453 1.14062,-1.97657 2.28515,-1.85547l21.91407,2.2539c1.14453,0.1211 1.97656,1.14063 1.85937,2.28516l-2.25781,21.91406c-0.11719,1.14453 -1.14063,1.97657 -2.28516,1.85938"/>
   <path id="svg_42" fill-rule="nonzero" fill="rgb(100%,100%,100%)" d="m172.92578,132.870142l-1.11719,10.85547l-2.51171,-0.25781l0.91015,-8.83984l-2.17187,-0.22657l0.20703,-2.01562l4.68359,0.48437"/>
   <path id="svg_43" fill-rule="nonzero" fill="rgb(94.206238%,24.050903%,37.214661%)" d="m220.48828,156.542022l-21.91406,-2.25781c-1.14453,-0.11719 -1.97266,-1.14063 -1.85547,-2.28516l2.25781,-21.91406c0.11719,-1.14453 1.13672,-1.97657 2.28125,-1.85547l21.91797,2.25781c1.14063,0.11719 1.97266,1.14063 1.85547,2.28125l-2.25781,21.91406c-0.11719,1.14453 -1.14063,1.97657 -2.28516,1.85938"/>
   <path id="svg_44" fill-rule="nonzero" fill="#a85617" d="m220.70703,156.553742c-0.07422,0 -0.14453,-0.00391 -0.21875,-0.01172l-2.92969,-0.30078c-3.34375,-4.12891 -6.76171,-8.13672 -9.76953,-11.16407c-2.82422,-2.85156 -6.09765,-5.15234 -9.65234,-6.84765l0.83984,-8.14453c0.10938,-1.07032 1.01172,-1.86719 2.06641,-1.86719c0.07031,0 0.14453,0.00391 0.21484,0.01172l21.91797,2.25781c1.07031,0.10938 1.86719,1.01563 1.86719,2.07031c0,0.07032 -0.00391,0.14063 -0.01172,0.21094l-2.25781,21.91406c-0.10938,1.07422 -1.01563,1.8711 -2.06641,1.8711"/>
   <path id="svg_45" fill-rule="nonzero" fill="rgb(9.106445%,15.531921%,18.24646%)" d="m216.46484,156.127962l-21.91406,-2.25782c-1.14453,-0.11718 -1.97656,-1.14062 -1.85547,-2.28515l2.25782,-21.91407c0.11718,-1.14453 1.14062,-1.97265 2.28125,-1.85546l21.91406,2.25781c1.14453,0.11719 1.97656,1.14062 1.85937,2.28125l-2.25781,21.91406c-0.11719,1.14453 -1.14062,1.97656 -2.28516,1.85938"/>
   <path id="svg_46" fill-rule="nonzero" fill="rgb(100%,100%,100%)" d="m212.27734,145.827172l-0.21093,2.04688l-8.20703,-0.84375l0.16796,-1.62891l4.59766,-3.52734c1.05469,-0.81641 1.28125,-1.35547 1.33984,-1.88281c0.08594,-0.85157 -0.45312,-1.41016 -1.60156,-1.52735c-0.92969,-0.09765 -1.75781,0.17969 -2.35937,0.85157l-1.70703,-1.36719c0.96093,-1.13672 2.5625,-1.77344 4.51953,-1.57031c2.41797,0.25 3.90234,1.65625 3.69922,3.625c-0.10547,1.05468 -0.5,1.98828 -2.16407,3.24218l-2.74218,2.10157l4.66796,0.48046"/>
   <path id="svg_47" fill-rule="nonzero" fill="rgb(94.206238%,24.050903%,37.214661%)" d="m258.15625,160.420922l-21.91406,-2.2539c-1.14453,-0.1211 -1.97656,-1.14453 -1.85938,-2.28516l2.25782,-21.91406c0.11718,-1.14453 1.14062,-1.97656 2.28515,-1.85938l21.91406,2.25782c1.14454,0.11718 1.97657,1.14062 1.85938,2.28515l-2.25781,21.91407c-0.1211,1.14453 -1.14063,1.97656 -2.28516,1.85546"/>
   <path id="svg_48" fill-rule="nonzero" fill="#aa5717" d="m258.37109,160.432642c-0.07031,0 -0.14453,-0.0039 -0.21484,-0.01172l-21.91406,-2.2539c-1.07422,-0.11328 -1.8711,-1.01953 -1.8711,-2.07422c0,-0.07031 0.00782,-0.14063 0.01172,-0.21094l2.25782,-21.91406c0.11328,-1.07422 1.01562,-1.87109 2.07031,-1.87109c0.07031,0 0.14062,0.0039 0.21484,0.01171l21.91406,2.25782c1.07032,0.10937 1.8711,1.01562 1.8711,2.07031c-0.00391,0.07031 -0.00781,0.14453 -0.01172,0.21484l-2.25781,21.91407c-0.11328,1.07031 -1.01563,1.86718 -2.07032,1.86718"/>
   <path id="svg_49" fill-rule="nonzero" fill="rgb(9.106445%,15.531921%,18.24646%)" d="m254.13281,160.006862l-21.91406,-2.25781c-1.14453,-0.11719 -1.97656,-1.14063 -1.85937,-2.28125l2.25781,-21.91797c0.11719,-1.14062 1.14062,-1.97266 2.28515,-1.85547l21.91407,2.25781c1.14453,0.11719 1.97265,1.14063 1.85937,2.28125l-2.26172,21.91797c-0.11718,1.14453 -1.13672,1.97266 -2.28125,1.85547"/>
   <path id="svg_50" fill-rule="nonzero" fill="rgb(100%,100%,100%)" d="m249.98047,148.424832c-0.1875,1.83203 -1.76953,3.35938 -4.85938,3.04297c-1.51953,-0.15625 -3.04296,-0.73828 -4.01953,-1.58984l1.17578,-1.82422c0.75391,0.70703 1.86719,1.17968 3,1.29687c1.25391,0.12891 2.08594,-0.30078 2.17579,-1.18359c0.08593,-0.82422 -0.46875,-1.39844 -1.89454,-1.54688l-1.14843,-0.11718l0.17187,-1.66016l2.49219,-2.29688l-4.62109,-0.47656l0.20703,-2.01562l7.60156,0.78125l-0.16797,1.6289l-2.73828,2.53907c1.92578,0.51171 2.79297,1.82421 2.625,3.42187"/>
   <path id="svg_51" fill-rule="nonzero" fill="rgb(94.206238%,24.050903%,37.214661%)" d="m295.82031,164.303742l-21.91406,-2.25782c-1.14062,-0.11718 -1.97266,-1.14062 -1.85547,-2.28515l2.25781,-21.91406c0.11719,-1.14454 1.14063,-1.97657 2.28125,-1.85547l21.91797,2.2539c1.14063,0.1211 1.97266,1.14063 1.85547,2.28516l-2.25781,21.91406c-0.11719,1.14453 -1.14063,1.97656 -2.28516,1.85938"/>
   <path id="svg_52" fill-rule="nonzero" fill="#aa5717" d="m296.03516,164.311552c-0.07032,0 -0.14063,0 -0.21485,-0.00781l-21.91406,-2.25782c-0.45703,-0.04687 -0.86719,-0.24218 -1.18359,-0.52734l-0.67578,-1.73047c0,-0.00781 0.0039,-0.01953 0.0039,-0.02734l2.25781,-21.91406c0.10938,-1.07032 1.01172,-1.86719 2.06641,-1.86719c0.07031,0 0.14453,0 0.21484,0.01172l21.91797,2.2539c1.07032,0.11328 1.86719,1.01953 1.86719,2.07422c0,0.07031 -0.00391,0.14063 -0.01172,0.21094l-2.25781,21.91406c-0.10938,1.07031 -1.01563,1.86719 -2.07031,1.86719"/>
   <path id="svg_53" fill-rule="nonzero" fill="rgb(9.106445%,15.531921%,18.24646%)" d="m291.89063,163.889672l-21.91407,-2.25781c-1.14453,-0.12109 -1.97656,-1.14062 -1.85937,-2.28515l2.25781,-21.91407c0.11719,-1.14453 1.14063,-1.97656 2.28516,-1.85937l21.91406,2.25781c1.14453,0.12109 1.97656,1.14063 1.85547,2.28516l-2.25781,21.91406c-0.11719,1.14453 -1.14063,1.97656 -2.28125,1.85937"/>
   <path id="svg_54" fill-rule="nonzero" fill="rgb(100%,100%,100%)" d="m287.92578,150.397492l-11.63281,-1.19922l0.10156,-0.99219l11.63281,1.19531l-0.10156,0.9961"/>
   <path id="svg_55" fill-rule="nonzero" fill="rgb(100%,100%,100%)" d="m284.57031,144.420922c-0.10937,1.04297 -1.03906,1.80079 -2.08203,1.69532c-1.04297,-0.10938 -1.79687,-1.03907 -1.6914,-2.08203c0.10937,-1.04297 1.03906,-1.80079 2.08203,-1.69141c1.03906,0.10547 1.79687,1.03906 1.6914,2.07812"/>
   <path id="svg_56" fill-rule="nonzero" fill="rgb(100%,100%,100%)" d="m283.52344,154.569362c-0.10938,1.03906 -1.03906,1.79688 -2.07813,1.69141c-1.04297,-0.10938 -1.80078,-1.03906 -1.69531,-2.08203c0.10938,-1.03907 1.03906,-1.79688 2.08203,-1.69141c1.03906,0.10938 1.80078,1.03906 1.69141,2.08203"/>
   <path id="svg_57" fill-rule="nonzero" fill="rgb(94.206238%,24.050903%,37.214661%)" d="m180.22266,190.967802l-21.91407,-2.25781c-1.14453,-0.11719 -1.97265,-1.14063 -1.85546,-2.28516l2.25781,-21.91406c0.11719,-1.14063 1.14062,-1.97266 2.28125,-1.85547l21.91406,2.25781c1.14453,0.11719 1.97656,1.14063 1.85938,2.28516l-2.25782,21.91015c-0.11718,1.14454 -1.14062,1.97657 -2.28515,1.85938"/>
   <path id="svg_58" fill-rule="nonzero" fill="rgb(9.106445%,15.531921%,18.24646%)" d="m176.19922,190.553742l-21.91406,-2.25782c-1.14453,-0.11718 -1.97266,-1.14062 -1.85547,-2.28515l2.25781,-21.91406c0.11719,-1.14063 1.14063,-1.97266 2.28125,-1.85547l21.91797,2.25781c1.14062,0.11719 1.97266,1.14062 1.85547,2.28516l-2.25781,21.91406c-0.11719,1.14062 -1.14063,1.97265 -2.28516,1.85547"/>
   <path id="svg_59" fill-rule="nonzero" fill="rgb(100%,100%,100%)" d="m171.28125,179.940462l-1.76953,-0.17969l-0.23438,2.28125l-2.44921,-0.25391l0.23437,-2.28125l-5.84766,-0.60156l0.17188,-1.69141l5.83203,-6.35937l2.63281,0.27344l-5.41797,6.03906l2.91797,0.30078l0.20703,-2.03125l2.375,0.24219l-0.21093,2.03515l1.76953,0.17969l-0.21094,2.04688"/>
   <path id="svg_60" fill-rule="nonzero" fill="rgb(94.206238%,24.050903%,37.214661%)" d="m216.55859,194.709992l-21.91406,-2.25782c-1.14453,-0.11718 -1.97656,-1.14062 -1.85937,-2.28125l2.25781,-21.91406c0.11719,-1.14453 1.14062,-1.97656 2.28516,-1.85937l21.91406,2.25781c1.14453,0.11719 1.97656,1.14062 1.85547,2.28516l-2.25391,21.91406c-0.12109,1.14453 -1.14453,1.97656 -2.28516,1.85547"/>
   <path id="svg_61" fill-rule="nonzero" fill="rgb(61.224365%,13.98468%,21.949768%)" d="m216.59766,194.713892c-0.01563,0 -0.02735,0 -0.03907,-0.0039l-14.19921,-1.46094l10.17578,1.04687c0.07031,0.00782 0.14453,0.01172 0.21484,0.01172c0.97266,0 1.81641,-0.67968 2.02734,-1.625c0.60938,0.6836 1.21485,1.36328 1.82032,2.03125"/>
   <path id="svg_62" fill-rule="nonzero" fill="rgb(9.106445%,15.531921%,18.24646%)" d="m212.53516,194.295922l-21.91797,-2.25781c-1.14063,-0.11719 -1.97266,-1.14062 -1.85547,-2.28125l2.25781,-21.91797c0.11719,-1.14062 1.14063,-1.97265 2.28516,-1.85547l21.91406,2.25782c1.14453,0.11718 1.97656,1.14062 1.85547,2.28125l-2.25781,21.91797c-0.11719,1.14453 -1.13672,1.97265 -2.28125,1.85546"/>
   <path id="svg_63" fill-rule="nonzero" fill="rgb(100%,100%,100%)" d="m207.28516,182.506862c-0.19532,1.92188 -1.78125,3.45313 -4.88282,3.13281c-1.5039,-0.15625 -3.04296,-0.73828 -4.02343,-1.58984l1.1914,-1.82031c0.75782,0.70703 1.85547,1.17969 2.98438,1.29687c1.25781,0.12891 2.08984,-0.32031 2.17969,-1.20312c0.08593,-0.85547 -0.41407,-1.46875 -2.38282,-1.67188l-2.77734,-0.28515l1.1875,-6.05469l6.625,0.67969l-0.20703,2.01953l-4.53125,-0.46875l-0.38281,2.04687l0.88671,0.08985c3.21094,0.33203 4.33204,1.90625 4.13282,3.82812"/>
   <path id="svg_64" fill-rule="nonzero" fill="rgb(94.206238%,24.050903%,37.214661%)" d="m254.22266,198.592802l-21.91407,-2.25781c-1.14453,-0.11719 -1.97265,-1.14063 -1.85937,-2.28516l2.26172,-21.91406c0.11719,-1.14453 1.14062,-1.97656 2.28125,-1.85938l21.91406,2.25782c1.14453,0.11718 1.97656,1.14062 1.85938,2.28515l-2.25782,21.91406c-0.11718,1.14454 -1.14062,1.97657 -2.28515,1.85938"/>
   <path id="svg_65" fill-rule="nonzero" fill="#aa5717" d="m254.44141,198.600612c-0.07422,0 -0.14453,-0.0039 -0.21875,-0.00781l-11.82032,-1.21875l15.125,-10.55469l-1.01953,9.91406c-0.10937,1.07032 -1.01562,1.86719 -2.0664,1.86719m-21.05078,-22.4414c-0.1836,-0.11329 -0.52344,-0.46485 -0.99219,-1.01172l0.3125,-3.01172c0.10937,-1.07031 1.01172,-1.8711 2.0664,-1.8711c0.07032,0 0.14454,0.00391 0.21485,0.01172l6.85547,0.70703l-8.45703,5.17579"/>
   <path id="svg_66" fill-rule="nonzero" fill="rgb(9.106445%,15.531921%,18.24646%)" d="m250.19922,198.178742l-21.91406,-2.25782c-1.14453,-0.12109 -1.97266,-1.14453 -1.85547,-2.28515l2.25781,-21.91406c0.11719,-1.14454 1.13672,-1.97657 2.28125,-1.85938l21.91406,2.25781c1.14453,0.11719 1.97657,1.14063 1.85938,2.28516l-2.25781,21.91406c-0.11719,1.14453 -1.14063,1.97656 -2.28516,1.85938"/>
   <path id="svg_67" fill-rule="nonzero" fill="rgb(100%,100%,100%)" d="m243.26563,186.323272c0.10156,-0.99219 -0.5625,-1.70313 -1.67579,-1.82031c-1.10156,-0.11329 -1.94921,0.49218 -2.04687,1.4375c-0.09375,0.92968 0.53125,1.68359 1.74219,1.80859c1.07031,0.10937 1.8789,-0.43359 1.98047,-1.42578zm2.44921,0.1289c-0.22656,2.21485 -2.1875,3.42579 -4.48437,3.1875c-2.99219,-0.30859 -4.66016,-2.375 -4.29688,-5.88281c0.38672,-3.7539 2.86329,-5.61328 6.14063,-5.27734c1.14453,0.11719 2.23437,0.49609 2.94531,1.05859l-1.12109,1.75c-0.5625,-0.46484 -1.2461,-0.67969 -1.97656,-0.7539c-1.8125,-0.1875 -3.08985,0.76562 -3.37891,2.83593c0.69922,-0.57422 1.64844,-0.80468 2.78125,-0.6875c2.09375,0.21485 3.60156,1.71875 3.39062,3.76953"/>
   <path id="svg_68" fill-rule="nonzero" fill="rgb(94.206238%,24.050903%,37.214661%)" d="m291.89063,202.471712l-21.91407,-2.25782c-1.14453,-0.11718 -1.97656,-1.14062 -1.85937,-2.28515l2.25781,-21.91407c0.11719,-1.14062 1.14063,-1.97265 2.28516,-1.85546l21.91406,2.25781c1.14453,0.11719 1.97656,1.14062 1.85547,2.28125l-2.25781,21.91797c-0.11719,1.14062 -1.14063,1.97265 -2.28125,1.85547"/>
   <path id="svg_69" fill-rule="nonzero" fill="#aa5717" d="m292.10547,202.483422c-0.07031,0 -0.14453,-0.0039 -0.21484,-0.01171l-21.91407,-2.25782c-1.07422,-0.10937 -1.87109,-1.01562 -1.87109,-2.07031c0,-0.07031 0.00391,-0.14062 0.01172,-0.21484l2.05469,-19.92578l5.11718,-3.57422l19.28516,1.98828c1.07031,0.10937 1.87109,1.01562 1.86719,2.07031c0,0.07031 -0.00391,0.14063 -0.01172,0.21094l-2.25781,21.91797c-0.10938,1.07031 -1.01172,1.86718 -2.06641,1.86718"/>
   <path id="svg_70" fill-rule="nonzero" fill="rgb(9.106445%,15.531921%,18.24646%)" d="m287.86719,202.057642l-21.91797,-2.25781c-1.14063,-0.11719 -1.97266,-1.14062 -1.85547,-2.28516l2.25781,-21.91406c0.11719,-1.14453 1.14063,-1.97265 2.28516,-1.85547l21.91406,2.25782c1.14453,0.11718 1.97656,1.13671 1.85547,2.28125l-2.25391,21.91406c-0.12109,1.14453 -1.14062,1.97656 -2.28515,1.85937"/>
   <path id="svg_71" fill-rule="nonzero" fill="rgb(100%,100%,100%)" d="m273.96875,191.913112l-0.62109,-0.78515l9.1875,-7.23829l0.62109,0.78516l-9.1875,7.23828"/>
   <path id="svg_72" fill-rule="nonzero" fill="rgb(100%,100%,100%)" d="m281.55469,192.752962l-7.38281,-9.07422l0.77734,-0.63282l7.37891,9.07813l-0.77344,0.62891"/>
   <path id="svg_73" fill-rule="nonzero" fill="rgb(94.206238%,24.050903%,37.214661%)" d="m176.32422,228.827172l-21.91406,-2.25781c-1.14453,-0.11719 -1.97657,-1.14062 -1.85938,-2.28515l2.25781,-21.91407c0.11719,-1.14453 1.14063,-1.97656 2.28516,-1.85547l21.91406,2.25782c1.14453,0.11718 1.97657,1.14062 1.85547,2.28125l-2.2539,21.91406c-0.1211,1.14453 -1.14063,1.97656 -2.28516,1.85937"/>
   <path id="svg_74" fill-rule="nonzero" fill="rgb(9.106445%,15.531921%,18.24646%)" d="m172.30078,228.413112l-21.91406,-2.25781c-1.14453,-0.11719 -1.97656,-1.14063 -1.85938,-2.28516l2.25782,-21.91406c0.11718,-1.14453 1.14062,-1.97656 2.28515,-1.85547l21.91407,2.25391c1.14453,0.12109 1.97656,1.14453 1.85937,2.28515l-2.25781,21.91407c-0.11719,1.14453 -1.14063,1.97656 -2.28516,1.85937"/>
   <path id="svg_75" fill-rule="nonzero" fill="rgb(100%,100%,100%)" d="m166.82422,209.073272l-0.16797,1.6289l-4.98437,8.81641l-2.73047,-0.28516l4.80078,-8.40625l-3.59766,-0.37109l-0.18359,1.76563l-2.23438,-0.22657l0.39453,-3.8164l8.70313,0.89453"/>
   <path id="svg_76" fill-rule="nonzero" fill="rgb(94.206238%,24.050903%,37.214661%)" d="m212.65625,232.569362l-21.91406,-2.25781c-1.14453,-0.11719 -1.97656,-1.14063 -1.85547,-2.28516l2.25781,-21.91406c0.11719,-1.14062 1.13672,-1.97266 2.28125,-1.85547l21.91797,2.25781c1.14063,0.11719 1.97266,1.14063 1.85547,2.28516l-2.25781,21.91406c-0.11719,1.14063 -1.14063,1.97266 -2.28516,1.85547"/>
   <path id="svg_77" fill-rule="nonzero" fill="#aa5717" d="m212.875,232.581082c-0.07422,0 -0.14453,-0.00391 -0.21875,-0.01172l-3.98437,-0.41015c0.05859,0.0039 0.11718,0.00781 0.17578,0.00781c1.05468,0 1.96093,-0.79688 2.07031,-1.8711l2.25781,-21.91406c0.11719,-1.14062 -0.71094,-2.16015 -1.85156,-2.28125l4.01953,0.41406c1.07031,0.10938 1.86719,1.01563 1.86719,2.07032c0,0.07031 -0.00391,0.14062 -0.01172,0.21484l-2.25781,21.91406c-0.10938,1.07032 -1.01563,1.86719 -2.06641,1.86719"/>
   <path id="svg_78" fill-rule="nonzero" fill="rgb(9.106445%,15.531921%,18.24646%)" d="m208.63281,232.155302l-21.91406,-2.25781c-1.14453,-0.11719 -1.97656,-1.14063 -1.85547,-2.28516l2.25391,-21.91406c0.12109,-1.14453 1.14453,-1.97266 2.28515,-1.85547l21.91407,2.25781c1.14453,0.11719 1.97656,1.14063 1.85937,2.28125l-2.25781,21.91406c-0.11719,1.14454 -1.14063,1.97657 -2.28516,1.85938"/>
   <path id="svg_79" fill-rule="nonzero" fill="rgb(100%,100%,100%)" d="m198.46094,215.389672c-0.08594,0.82422 0.51172,1.40235 1.53515,1.50782c1.03907,0.10547 1.76172,-0.33594 1.84375,-1.16016c0.08985,-0.85156 -0.53906,-1.43359 -1.5664,-1.53906c-1.00781,-0.10547 -1.72656,0.33984 -1.8125,1.1914zm3.24609,4.99219c0.10156,-0.96094 -0.63281,-1.63281 -1.88672,-1.76172c-1.24218,-0.1289 -2.07812,0.37891 -2.17578,1.34375c-0.10156,0.96094 0.61328,1.64453 1.85156,1.77344c1.25782,0.12891 2.11329,-0.39453 2.21094,-1.35547zm2.53516,0.33985c-0.21094,2.04687 -2.17188,3.14453 -4.9336,2.85937c-2.74609,-0.28125 -4.42578,-1.75781 -4.21484,-3.80469c0.11719,-1.16406 0.8125,-1.96875 1.90625,-2.39062c-0.75781,-0.57813 -1.12891,-1.38281 -1.02734,-2.36328c0.19531,-1.90625 2.02734,-2.92578 4.49218,-2.67188c2.5,0.25781 4.08204,1.62891 3.88672,3.53516c-0.10156,0.98047 -0.64843,1.6914 -1.5039,2.10547c1,0.63672 1.51562,1.5664 1.39453,2.73047"/>
   <path id="svg_80" fill-rule="nonzero" fill="rgb(94.206238%,24.050903%,37.214661%)" d="m250.32422,236.452172l-21.91406,-2.26171c-1.14453,-0.11719 -1.97657,-1.13672 -1.85938,-2.28125l2.25781,-21.91407c0.11719,-1.14453 1.14063,-1.97656 2.28516,-1.85937l21.91406,2.25781c1.14453,0.11719 1.97657,1.14063 1.85547,2.28516l-2.2539,21.91406c-0.1211,1.14453 -1.14063,1.97266 -2.28516,1.85937"/>
   <path id="svg_81" fill-rule="nonzero" fill="#aa5717" d="m250.53906,236.459992c-0.07031,0 -0.14453,0 -0.21484,-0.00782l-21.91406,-2.26171c-1.07422,-0.10938 -1.8711,-1.01563 -1.8711,-2.07032c0,-0.07031 0.00391,-0.14062 0.01172,-0.21093l2.25781,-21.91407c0.11329,-1.07031 1.01563,-1.87109 2.07032,-1.87109c0.07031,0 0.14062,0.00391 0.21484,0.01172l21.91406,2.25781c1.07032,0.10938 1.8711,1.01563 1.86719,2.07031c0,0.07032 -0.00391,0.14063 -0.01172,0.21485l-2.2539,21.91406c-0.11329,1.07031 -1.01563,1.86719 -2.07032,1.86719"/>
   <path id="svg_82" fill-rule="nonzero" fill="rgb(9.106445%,15.531921%,18.24646%)" d="m246.30078,236.034212l-21.91406,-2.25782c-1.14453,-0.11718 -1.97656,-1.13672 -1.85938,-2.28125l2.25782,-21.91406c0.11718,-1.14453 1.14062,-1.97656 2.28515,-1.85937l21.91407,2.25781c1.14453,0.11719 1.97656,1.14062 1.85937,2.28515l-2.25781,21.91407c-0.1211,1.14453 -1.14063,1.97265 -2.28516,1.85547"/>
   <path id="svg_83" fill-rule="nonzero" fill="rgb(100%,100%,100%)" d="m239.13672,219.862332c0.09766,-0.92969 -0.53125,-1.68359 -1.72656,-1.80859c-1.07032,-0.10938 -1.87891,0.43359 -1.98047,1.42578c-0.10156,0.99219 0.5625,1.70312 1.67969,1.82031c1.10156,0.11328 1.92968,-0.49219 2.02734,-1.4375zm2.61328,2.18359c-0.38672,3.75391 -2.85156,5.61329 -6.14062,5.27735c-1.14454,-0.1211 -2.22266,-0.4961 -2.92969,-1.05469l1.12109,-1.75c0.54688,0.46094 1.23047,0.67578 1.97266,0.75c1.80078,0.1875 3.08984,-0.76172 3.38281,-2.84766c-0.70312,0.57032 -1.66797,0.8125 -2.80078,0.69922c-2.09375,-0.21875 -3.60156,-1.72265 -3.39063,-3.76953c0.23047,-2.21875 2.1875,-3.42578 4.48438,-3.1914c3.01172,0.3125 4.66406,2.3789 4.30078,5.88671"/>
   <path id="svg_84" fill-rule="nonzero" fill="rgb(94.206238%,24.050903%,37.214661%)" d="m287.98828,240.331082l-21.91406,-2.25781c-1.14453,-0.11719 -1.97266,-1.14063 -1.85547,-2.28516l2.25781,-21.91406c0.11719,-1.14453 1.14063,-1.97656 2.28125,-1.85547l21.91797,2.25391c1.14063,0.12109 1.97266,1.14453 1.85547,2.28515l-2.25781,21.91407c-0.11719,1.14453 -1.14063,1.97656 -2.28516,1.85937"/>
   <path id="svg_85" fill-rule="nonzero" fill="#aa5717" d="m288.20313,240.342802c-0.07032,0 -0.14063,-0.00391 -0.21485,-0.01172l-21.91406,-2.25781c-1.07031,-0.10938 -1.87109,-1.01563 -1.86719,-2.07031c0,-0.07032 0.00391,-0.14454 0.01172,-0.21485l2.25781,-21.91406c0.10938,-1.07031 1.01172,-1.86719 2.06641,-1.86719c0.07031,0 0.14453,0.00391 0.21484,0.01172l21.91797,2.25391c1.07031,0.11328 1.86719,1.01953 1.86719,2.07422c0,0.07031 -0.00391,0.14062 -0.01172,0.21093l-2.25781,21.91407c-0.10938,1.07421 -1.01563,1.87109 -2.07031,1.87109"/>
   <path id="svg_86" fill-rule="nonzero" fill="rgb(9.106445%,15.531921%,18.24646%)" d="m283.96484,239.917022l-21.91406,-2.25781c-1.14453,-0.11719 -1.97656,-1.14063 -1.85547,-2.28516l2.25391,-21.91406c0.12109,-1.14453 1.14453,-1.97657 2.28516,-1.85938l21.91796,2.25781c1.14063,0.1211 1.97266,1.14063 1.85547,2.28516l-2.25781,21.91406c-0.11719,1.14453 -1.14062,1.97657 -2.28516,1.85938"/>
   <path id="svg_87" fill-rule="nonzero" fill="rgb(100%,100%,100%)" d="m280.11719,226.854522l-11.63281,-1.19531l0.10156,-0.9961l11.63281,1.19531l-0.10156,0.9961"/>
   <path id="svg_88" fill-rule="nonzero" fill="rgb(94.206238%,24.050903%,37.214661%)" d="m246.39063,274.639672l-21.91407,-2.25781c-1.14453,-0.11719 -1.97656,-1.14062 -1.85937,-2.28515l2.25781,-21.91407c0.11719,-1.14453 1.14063,-1.97265 2.28516,-1.85547l21.91406,2.25782c1.14453,0.11718 1.97656,1.14062 1.85547,2.28125l-2.25781,21.91406c-0.11719,1.14453 -1.14063,1.97656 -2.28125,1.85937"/>
   <path id="svg_89" fill-rule="nonzero" fill="#aa5717" d="m246.60547,274.651392c-0.07031,0 -0.14453,-0.0039 -0.21484,-0.01172l-21.91407,-2.25781c-1.07422,-0.10937 -1.87109,-1.01562 -1.87109,-2.07031c0,-0.07031 0.00391,-0.14063 0.01172,-0.21484l2.25781,-21.91407c0.10938,-1.07031 1.01563,-1.86718 2.07031,-1.86718c0.07032,0 0.14063,0.0039 0.21485,0.01171l21.91406,2.25782c1.07031,0.10937 1.87109,1.01562 1.86719,2.07031c0,0.07031 -0.00391,0.14062 -0.01172,0.21094l-2.25781,21.91406c-0.10938,1.07422 -1.01172,1.87109 -2.06641,1.87109"/>
   <path id="svg_90" fill-rule="nonzero" fill="rgb(9.106445%,15.531921%,18.24646%)" d="m242.36328,274.225612l-21.91406,-2.25781c-1.14063,-0.11719 -1.97266,-1.14063 -1.85547,-2.28516l2.25781,-21.91406c0.11719,-1.14453 1.14063,-1.97656 2.28516,-1.85547l21.91406,2.25781c1.14453,0.11719 1.97656,1.14063 1.85547,2.28125l-2.25781,21.91407c-0.11719,1.14453 -1.14063,1.97656 -2.28516,1.85937"/>
   <path id="svg_91" fill-rule="nonzero" fill="rgb(94.206238%,24.050903%,37.214661%)" d="m284.05469,278.518582l-21.91406,-2.25781c-1.14454,-0.11719 -1.97657,-1.14063 -1.85938,-2.28125l2.25781,-21.91406c0.11719,-1.14454 1.14453,-1.97657 2.28516,-1.85938l21.91406,2.25781c1.14453,0.11719 1.97656,1.14063 1.85938,2.28516l-2.25782,21.91406c-0.11718,1.14453 -1.14062,1.97266 -2.28515,1.85547"/>
   <path id="svg_92" fill-rule="nonzero" fill="#aa5717" d="m284.26953,278.530302c-0.07031,0 -0.14062,-0.00391 -0.21484,-0.01172l-21.91406,-2.25781c-1.07032,-0.10938 -1.8711,-1.01563 -1.86719,-2.07031c0,-0.07032 0.0039,-0.14063 0.00781,-0.21094l2.25781,-21.91406c0.11328,-1.07032 1.01563,-1.8711 2.07032,-1.8711c0.07031,0 0.14453,0.00391 0.21484,0.01172l21.91406,2.25781c1.07422,0.10938 1.8711,1.01563 1.8711,2.07032c0,0.07031 -0.00391,0.14062 -0.01172,0.21484l-2.25782,21.91406c-0.10937,1.07031 -1.01562,1.86719 -2.07031,1.86719"/>
   <path id="svg_93" fill-rule="nonzero" fill="rgb(20.033264%,32.420349%,37.091064%)" d="m280.03125,278.104522l-21.91406,-2.25781c-1.14453,-0.11719 -1.97656,-1.14063 -1.85547,-2.28125l2.25781,-21.91797c0.11719,-1.14063 1.13672,-1.97266 2.28125,-1.85547l21.91406,2.25781c1.14454,0.11719 1.97657,1.14063 1.85938,2.28516l-2.25781,21.91406c-0.11719,1.14062 -1.14063,1.97266 -2.28516,1.85547"/>
   <path id="svg_94" fill-rule="nonzero" fill="rgb(100%,100%,100%)" d="m276.33203,263.608422l-11.63672,-1.19531l0.10157,-0.99609l11.63671,1.19922l-0.10156,0.99218"/>
   <path id="svg_95" fill-rule="nonzero" fill="rgb(100%,100%,100%)" d="m275.875,268.038112l-11.63672,-1.19922l0.10547,-0.99218l11.63281,1.19531l-0.10156,0.99609"/>
   <path id="svg_96" fill-rule="nonzero" fill="rgb(9.106445%,15.531921%,18.24646%)" d="m203.38672,270.545922l-57.91797,-5.96875c-1.375,-0.14062 -2.375,-1.37109 -2.23437,-2.74218l2.24218,-21.7461c0.14063,-1.37109 1.3711,-2.37109 2.74219,-2.23047l57.91797,5.96875c1.375,0.14063 2.375,1.36719 2.23047,2.74219l-2.23828,21.74219c-0.14063,1.375 -1.36719,2.375 -2.74219,2.23437"/>
   <path id="svg_97" fill-rule="nonzero" fill="rgb(100%,100%,100%)" d="m180.24609,254.135772c0.25391,-2.46485 -0.51171,-3.57813 -1.76562,-3.70703c-1.24219,-0.12891 -2.21484,0.80468 -2.46875,3.27343c-0.25391,2.46485 0.50781,3.57813 1.75,3.70704c1.25391,0.1289 2.23047,-0.80469 2.48437,-3.27344zm-6.78125,-0.69531c0.3711,-3.58594 2.56641,-5.41407 5.23438,-5.13672c2.68359,0.27343 4.44531,2.51172 4.07422,6.09375c-0.36719,3.58203 -2.54688,5.41406 -5.23438,5.13672c-2.66406,-0.27735 -4.4414,-2.51172 -4.07422,-6.09375"/>
   <path id="svg_98" fill-rule="nonzero" fill="rgb(100%,100%,100%)" d="m232.55859,265.936552l-0.99218,-0.12109l1.3789,-11.61329l0.99219,0.11719l-1.37891,11.61719"/>
   <path id="svg_99" fill-rule="nonzero" fill="rgb(100%,100%,100%)" d="m238.51953,261.167022l-11.63672,-1.19922l0.10157,-0.99609l11.63281,1.19921l-0.09766,0.9961"/>
   <path id="svg_100" fill-rule="nonzero" fill="rgb(9.106445%,15.531921%,18.24646%)" d="m221.54297,75.995142l-1.67578,16.23438l-0.76172,-0.07813l1.59766,-15.51562l-4.08204,-0.41797l0.07422,-0.71875l4.84766,0.49609"/>
   <path id="svg_101" fill-rule="nonzero" fill="rgb(9.106445%,15.531921%,18.24646%)" d="m234.87891,93.049832l-0.07422,0.71875l-10.99219,-1.13281l0.05469,-0.55469l7.67969,-6.28516c2.19921,-1.78906 2.73828,-2.92968 2.875,-4.2539c0.22265,-2.15625 -1.14063,-3.70313 -3.96875,-3.9961c-2.15625,-0.22265 -3.80079,0.24219 -5.07422,1.44922l-0.48047,-0.5664c1.35156,-1.26563 3.26172,-1.84375 5.65234,-1.59766c3.10547,0.32031 4.91406,2.125 4.64063,4.74219c-0.15625,1.53125 -0.78125,2.82812 -3.13282,4.74219l-6.99218,5.72656l9.8125,1.00781"/>
   <path id="svg_102" fill-rule="nonzero" fill="rgb(9.106445%,15.531921%,18.24646%)" d="m247.74219,90.553742c-0.27344,2.6914 -2.375,4.39843 -5.94531,4.03125c-2.4336,-0.25 -4.4961,-1.40235 -5.40235,-2.83203l0.47266,-0.51172c0.83203,1.28125 2.66015,2.38281 4.98047,2.62109c3.10937,0.32031 4.89062,-1.04297 5.13281,-3.38672c0.24219,-2.36328 -1.17969,-4.03515 -4.61328,-4.38672l-0.90235,-0.09375l0.05469,-0.55859l5.73828,-6.0625l-8.95312,-0.92578l0.07422,-0.71875l9.97265,1.02734l-0.05859,0.5586l-5.76172,6.08593c3.80469,0.39063 5.49219,2.44141 5.21094,5.15235"/>
   <path id="svg_103" fill-rule="nonzero" fill="rgb(9.106445%,15.531921%,18.24646%)" d="m263.71875,92.014672l-3.52734,-0.36328l-0.48047,4.6836l-0.76563,-0.07813l0.48047,-4.68359l-9.32422,-0.96094l0.0586,-0.55859l10.10937,-10.06641l0.90625,0.09375l-9.98047,9.94141l8.30469,0.85547l0.42578,-4.12891l0.76563,0.07812l-0.42578,4.12891l3.52343,0.35938l-0.07031,0.69921"/>
   <path id="svg_104" fill-rule="nonzero" fill="rgb(9.106445%,15.531921%,18.24646%)" d="m267.10938,96.393582c-0.03125,0.30469 -0.1211,0.48047 -0.22657,0.84375l-1.15625,3.02344l-0.60547,-0.0625l1.05079,-3.125c-0.38672,-0.11328 -0.63672,-0.44141 -0.59375,-0.83594c0.04296,-0.41797 0.40234,-0.73047 0.84375,-0.6875c0.46484,0.04688 0.72656,0.47266 0.6875,0.84375"/>
   <path id="svg_105" fill-rule="nonzero" fill="rgb(9.106445%,15.531921%,18.24646%)" d="m283.19922,94.018582l-3.52734,-0.35937l-0.48047,4.68359l-0.76563,-0.07813l0.48047,-4.6875l-9.32422,-0.95703l0.0586,-0.55859l10.10937,-10.06641l0.90234,0.08985l-9.97656,9.9414l8.30469,0.85547l0.42187,-4.1289l0.76563,0.08203l-0.42578,4.1289l3.52734,0.35938l-0.07031,0.69531"/>
   <path id="svg_106" fill-rule="nonzero" fill="rgb(9.106445%,15.531921%,18.24646%)" d="m295.24609,95.354522c-0.26953,2.64453 -2.3125,4.49609 -6,4.11719c-2.39062,-0.2461 -4.47265,-1.39844 -5.38281,-2.82813l0.5,-0.51172c0.80469,1.28125 2.66016,2.38672 4.95703,2.6211c3.17578,0.32812 4.90235,-1.17969 5.14063,-3.48047c0.25781,-2.50391 -1.07422,-4.14063 -5.71485,-4.61719l-3.15234,-0.32422l1.64453,-7.56641l8.375,0.86329l-0.07422,0.71875l-7.72265,-0.79688l-1.33594,6.14453l2.50391,0.25781c4.96093,0.51172 6.55859,2.52735 6.26171,5.40235"/>
   <path id="svg_107" fill-rule="nonzero" fill="#008e96" d="m117.86719,427.932642l-6.35938,23.50782l20.66407,1.88281l4.34375,-22.37891l-18.64844,-3.01172"/>
   <path id="svg_108" fill-rule="nonzero" fill="rgb(9.106445%,15.531921%,18.24646%)" d="m132.77344,451.409212c-0.00781,0.07812 -1.16406,0.05078 -3.02735,-0.10157c-1.86328,-0.15234 -4.42578,-0.43359 -7.25,-0.79687c-2.72265,-0.36328 -5.17968,-0.69531 -7.22265,-0.96875c-1.84766,-0.26172 -2.98828,-0.4375 -2.98047,-0.51563c0.00781,-0.07812 1.16406,-0.04297 3.02734,0.10938c1.85938,0.15625 4.42578,0.4414 7.25,0.80469c2.71875,0.36328 5.17969,0.6914 7.21875,0.96093c1.84766,0.25391 2.99219,0.42578 2.98438,0.50782"/>
   <path id="svg_109" fill-rule="nonzero" fill="rgb(100%,100%,100%)" d="m111.50781,451.440462l0.02344,-0.23438l0.57422,-2.19922l0.05859,0.00781l-0.65625,2.42579"/>
   <path id="svg_110" fill-rule="nonzero" fill="#5dbcc1" d="m132.17188,453.323272l-20.66407,-1.88281l0.65625,-2.42579l0.13282,0.01563c0.04687,0.08594 1.17968,0.25781 2.97656,0.51172c2.04297,0.27344 4.5,0.60547 7.22265,0.96875c2.82422,0.36328 5.38672,0.64453 7.25,0.79687c0.38672,0.03125 0.74219,0.05469 1.06641,0.07813l1.69531,0.21484l-0.33593,1.72266"/>
   <path id="svg_111" fill-rule="nonzero" fill="#599fa3" d="m130.8125,451.385772c-0.32422,-0.02344 -0.67969,-0.04688 -1.06641,-0.07813c-1.86328,-0.15234 -4.42578,-0.43359 -7.25,-0.79687c-2.72265,-0.36328 -5.17968,-0.69531 -7.22265,-0.96875c-1.79688,-0.25391 -2.92969,-0.42578 -2.97656,-0.51172l18.51562,2.35547"/>
   <path id="svg_112" fill-rule="nonzero" fill="rgb(9.106445%,15.531921%,18.24646%)" d="m121.77344,450.393582c-0.12891,-0.03125 0.75,-4.06641 1.96484,-9.00781c1.21485,-4.94141 2.3086,-8.92188 2.4375,-8.89063c0.12891,0.03125 -0.75,4.0625 -1.96484,9.00782c-1.21485,4.9414 -2.3086,8.92187 -2.4375,8.89062"/>
   <path id="svg_113" fill-rule="nonzero" fill="rgb(9.106445%,15.531921%,18.24646%)" d="m131.62891,451.256862c-0.125,-0.0039 0.66015,-1.6875 0.04687,-4.37109c-0.3125,-1.30469 -1,-2.82813 -2.26172,-4.08985c-1.23828,-1.26953 -3.09765,-2.15234 -5.14062,-2.36328c-2.04688,-0.19531 -4.03906,0.29688 -5.53516,1.25782c-1.51172,0.94921 -2.55469,2.24609 -3.21875,3.42187c-1.3125,2.41016 -1.18359,4.22266 -1.30078,4.19141c-0.01953,0 -0.02734,-0.10938 -0.03125,-0.3125c-0.01172,-0.20703 0.00781,-0.50782 0.04688,-0.89453c0.08593,-0.77344 0.34765,-1.89454 0.98437,-3.14844c0.64844,-1.23828 1.70313,-2.61328 3.28125,-3.63281c1.5625,-1.03516 3.66797,-1.57422 5.82031,-1.36329c2.15235,0.21875 4.11719,1.16797 5.41407,2.53125c1.3125,1.35157 1.99218,2.96094 2.27734,4.33204c0.27344,1.38281 0.17578,2.53906 0.00781,3.29687c-0.08984,0.38281 -0.17187,0.67188 -0.2539,0.86328c-0.07422,0.19141 -0.1211,0.28906 -0.13672,0.28125"/>
   <path id="svg_114" fill-rule="nonzero" fill="#008e96" d="m203.10938,425.252962l-1.22657,18.51562c0,0 18.42578,6.11328 18.53125,9.55469l-36,0.26172l0.72657,-28.92578l17.96875,0.59375"/>
   <path id="svg_115" fill-rule="nonzero" fill="#5dbcc1" d="m191.10156,444.616242c-0.625,0 -1.24218,-0.47657 -1.36718,-1.09766c-0.12891,-0.66406 0.30468,-1.38281 0.9375,-1.60937c0.1289,-0.0625 0.26562,-0.08985 0.41015,-0.08985c0.58203,0 1.22266,0.46875 1.39844,1.01953c0.21875,0.6875 -0.41797,1.59375 -1.12109,1.75c-0.08594,0.01953 -0.17188,0.02735 -0.25782,0.02735"/>
   <path id="svg_116" fill-rule="nonzero" fill="rgb(100%,100%,100%)" d="m220.59766,453.584992l-36.1836,0l0.54297,-0.00391c11.59766,0.00391 23.4961,0.00391 35.64063,0.00391m-0.22657,-0.51953c-0.12109,-0.44532 -0.51562,-0.92969 -1.10546,-1.4336c0.07421,0.03516 0.88281,0.42578 1.21484,1.4336c-0.03516,0 -0.07031,0 -0.10938,0"/>
   <path id="svg_117" fill-rule="nonzero" fill="rgb(60.61554%,65.072632%,65.216064%)" d="m220.59766,453.584992c-12.14453,0 -24.04297,0 -35.64063,-0.00391l35.45703,-0.25781c-0.0039,-0.08594 -0.01562,-0.16797 -0.04297,-0.25781c0.03907,0 0.07422,0 0.10938,0c0.05469,0.15625 0.09375,0.33203 0.11719,0.51953"/>
   <path id="svg_118" fill-rule="nonzero" fill="#5dbcc1" d="m184.41406,453.584992l0.1875,-2.91016l34.65625,0.95703c0,0 0.00391,0 0.00782,0c0.58984,0.50391 0.98437,0.98828 1.10546,1.4336c0.02735,0.08984 0.03907,0.17187 0.04297,0.25781l-35.45703,0.25781l-0.54297,0.00391"/>
   <path id="svg_119" fill-rule="nonzero" fill="rgb(9.106445%,15.531921%,18.24646%)" d="m202.46875,443.600612c-0.00781,0.17578 -0.89062,0.23047 -1.77344,0.76953c-0.89453,0.51563 -1.36328,1.26172 -1.52343,1.1875c-0.16016,-0.03906 0.13281,-1.08203 1.21484,-1.71484c1.07031,-0.64453 2.125,-0.40234 2.08203,-0.24219"/>
   <path id="svg_120" fill-rule="nonzero" fill="rgb(9.106445%,15.531921%,18.24646%)" d="m206.19922,445.276392c0.03516,0.17188 -0.73828,0.44922 -1.35547,1.17188c-0.64062,0.70703 -0.81641,1.50781 -0.99219,1.49219c-0.16406,0.02343 -0.2539,-1.00782 0.53125,-1.89454c0.78125,-0.89453 1.81641,-0.9375 1.81641,-0.76953"/>
   <path id="svg_121" fill-rule="nonzero" fill="rgb(9.106445%,15.531921%,18.24646%)" d="m208.20313,449.858422c-0.16016,0.03125 -0.37891,-0.85156 0.10156,-1.80078c0.47265,-0.95312 1.3125,-1.30859 1.38281,-1.15625c0.09766,0.14453 -0.45312,0.64453 -0.83594,1.42969c-0.39843,0.77734 -0.47265,1.51563 -0.64843,1.52734"/>
   <path id="svg_122" fill-rule="nonzero" fill="rgb(9.106445%,15.531921%,18.24646%)" d="m202.28125,439.350612c-0.07812,0.16016 -0.875,-0.10937 -1.87109,-0.07031c-0.9961,0.01562 -1.77735,0.32812 -1.86719,0.17187c-0.09766,-0.1289 0.67578,-0.75781 1.85156,-0.78515c1.17188,-0.03516 1.97656,0.55078 1.88672,0.68359"/>
   <path id="svg_123" fill-rule="nonzero" fill="rgb(65.296936%,66.355896%,65.795898%)" d="m184.96875,431.522492l0.06641,-2.97657l0.00781,0l-0.07422,2.97657"/>
   <path id="svg_124" fill-rule="nonzero" fill="rgb(72.999573%,17.304993%,25.953674%)" d="m202.64844,432.221712l-17.67969,-0.69922l0.07422,-2.97657l17.81641,0.375l-0.21094,3.30079"/>
   <path id="svg_125" fill-rule="nonzero" fill="rgb(9.106445%,15.531921%,18.24646%)" d="m202.46094,435.612332c0,0.07422 -0.69922,0.16016 -1.80469,-0.0625c-0.54687,-0.11328 -1.19141,-0.31641 -1.86719,-0.64062c-0.33593,-0.16016 -0.67578,-0.35157 -1.01562,-0.57813c-0.16406,-0.10937 -0.35547,-0.22266 -0.53125,-0.44141c-0.1875,-0.1875 -0.28516,-0.65625 -0.05469,-0.93359c0.19531,-0.27344 0.52344,-0.38281 0.78516,-0.37891c0.26562,-0.0039 0.47656,0.0586 0.67187,0.11329c0.39844,0.10937 0.76953,0.2539 1.10938,0.41796c0.67578,0.33204 1.22265,0.7461 1.6289,1.14063c0.8086,0.79687 1.07422,1.46484 1.01563,1.49609c-0.08203,0.05469 -0.47266,-0.50781 -1.30469,-1.17187c-0.41016,-0.32813 -0.94141,-0.67578 -1.57812,-0.95313c-0.31641,-0.13672 -0.66016,-0.26172 -1.02344,-0.35156c-0.37891,-0.11328 -0.70313,-0.125 -0.80469,0.04297c-0.03906,0.0625 -0.04297,0.08984 0.03125,0.20312c0.08203,0.10547 0.23047,0.21094 0.39063,0.32032c0.3125,0.21875 0.6289,0.41015 0.9375,0.57422c0.61718,0.33203 1.21093,0.5625 1.71875,0.71875c1.02343,0.32031 1.70312,0.39062 1.69531,0.48437"/>
   <path id="svg_126" fill-rule="nonzero" fill="rgb(9.106445%,15.531921%,18.24646%)" d="m202.22266,435.858422c-0.0625,0.02344 -0.39063,-0.61718 -0.42188,-1.75781c-0.01172,-0.5664 0.06641,-1.24609 0.30469,-1.96484c0.12109,-0.35938 0.28516,-0.72266 0.49219,-1.07813c0.22265,-0.35156 0.49609,-0.82031 1.17968,-0.875c0.35547,-0.0039 0.64454,0.28125 0.73438,0.52344c0.11328,0.24609 0.12891,0.45703 0.16797,0.66797c0.05078,0.42187 0.03125,0.83203 -0.03516,1.21094c-0.13672,0.76562 -0.46875,1.39062 -0.82812,1.83984c-0.73047,0.91016 -1.46875,1.09766 -1.48438,1.03906c-0.05469,-0.08984 0.56641,-0.41015 1.13281,-1.28906c0.27735,-0.43359 0.53125,-1.01172 0.6211,-1.67578c0.04687,-0.33203 0.05078,-0.6875 0,-1.04297c-0.04688,-0.38672 -0.17969,-0.69922 -0.32422,-0.66406c-0.17969,-0.00781 -0.49219,0.27344 -0.64844,0.57031c-0.19531,0.32031 -0.35156,0.64453 -0.47656,0.96484c-0.24609,0.64454 -0.36328,1.26172 -0.40234,1.78907c-0.08204,1.05468 0.08593,1.71875 -0.01172,1.74218"/>
   <path id="svg_127" fill-rule="nonzero" fill="rgb(20.033264%,32.420349%,37.091064%)" d="m125.05078,136.901392c0,0 -3.90234,21.30469 -7.03906,34.19532c-2.4375,10.00781 -8.74219,28.76953 2.66797,34.22265c11.41015,5.44922 26.7539,-16.54297 26.7539,-16.54297l6.51172,-50.13281c-4.53515,0.84766 -9.66797,6.10547 -15.14062,13.83594l0.99609,-19.01953l-14.75,3.4414"/>
   <path id="svg_128" fill-rule="nonzero" fill="rgb(97.399902%,64.651489%,55.455017%)" d="m282.07031,168.370142l-6.0039,2.85938l-5.51953,-8.66406l3.22656,-6.69141c0.30859,-0.62109 0.63281,-1.31641 0.98047,-2.11719c0.40234,-0.93359 0.63672,-1.92969 0.71093,-2.94531c0.08985,-1.22266 0.14454,-2.85938 -0.09765,-3.76172c-0.29688,-1.11719 0.88672,-2.03516 1.6875,-1.38281c0.80469,0.65234 1.69922,3.70703 1.10156,7.39453c-0.59375,3.68359 3.69922,-0.22656 5.28906,-1.62109c1.58594,-1.39844 6.69922,-5.48047 7.50391,-5.32422c1.17578,0.23437 1.14453,1.57031 -0.47266,2.92968c-1.64062,1.375 -6.19531,5.77344 -5.4414,6.59766l0.03906,0c1.91406,0.20313 3.49219,1.62109 3.91406,3.50391c0.41016,1.8164 0.73828,4.32031 -0.28125,5.14843c-1.92578,1.5586 -6.63672,4.07422 -6.63672,4.07422"/>
   <path id="svg_129" fill-rule="nonzero" fill="rgb(97.399902%,64.651489%,55.455017%)" d="m165.72656,87.545922l-0.15625,52.11329l22.35547,1.0664l0.64453,-12.67578c0,0 7.94141,1.57813 9.99219,-5.79687c1.30859,-4.71094 0.98047,-41.1211 0.98047,-41.1211l-33.81641,6.41406"/>
   <path id="svg_130" fill-rule="nonzero" fill="rgb(9.106445%,15.531921%,18.24646%)" d="m204.59375,86.272492c-1.50781,3.11328 -8.67969,8.8125 -8.67969,8.8125l-3.23828,8.67968c-2.8125,-2.20312 -6.58984,-2.07812 -7.30859,2.86719c-0.51563,3.57422 3.92578,4.29688 3.92578,4.29688c-2.58594,4.40234 -4.33984,7.96093 -8.10547,12.14843c-4.07422,4.52735 -6.35937,4.98438 -10.77734,5.0586l-4.875,0c0,0 -9.97266,-8.33203 -8,-30.28125c1.96875,-21.95313 21.70312,-15.54688 26.41406,-21.03125c7.66797,-8.9336 25.66797,-0.94531 20.64453,9.44922"/>
   <path id="svg_131" fill-rule="nonzero" fill="rgb(20.033264%,32.420349%,37.091064%)" d="m158.64063,116.206082c0,0 0.21875,-0.00781 0.625,0c0.40625,-0.01953 1.01171,-0.03516 1.76953,-0.20312c1.51172,-0.30079 3.65234,-1.1875 5.72656,-3.03516c2.09766,-1.82813 3.94141,-4.60938 5.80469,-7.76563c0.94531,-1.57421 1.9375,-3.23828 3.13672,-4.84765c1.19921,-1.60156 2.61328,-3.17578 4.38671,-4.375c1.76954,-1.20703 3.76563,-1.92188 5.69922,-2.42578c1.94532,-0.50782 3.85157,-0.81641 5.65235,-1.16797c3.59765,-0.66406 6.82812,-1.66797 9.02734,-3.375c2.21094,-1.6875 3.30859,-3.78906 3.65625,-5.28125c0.19531,-0.75 0.19531,-1.35547 0.21484,-1.76172c-0.02343,-0.40625 -0.02343,-0.625 -0.02343,-0.625c0,0 0.03125,0.21484 0.0664,0.625c-0.0039,0.40625 0.00782,1.01953 -0.17968,1.78125c-0.32422,1.51562 -1.41797,3.65234 -3.64454,5.37891c-2.21875,1.74609 -5.48046,2.76953 -9.07812,3.44531c-1.80469,0.35937 -3.71094,0.67187 -5.63672,1.17578c-1.92187,0.50781 -3.89453,1.21484 -5.63672,2.40234c-1.74609,1.1836 -3.14844,2.73438 -4.33984,4.32422c-1.19141,1.59766 -2.1836,3.25391 -3.13672,4.82422c-1.87109,3.15234 -3.74219,5.94922 -5.87109,7.78125c-2.10547,1.84766 -4.28125,2.72266 -5.8086,3c-0.76562,0.15625 -1.375,0.16016 -1.78515,0.16797c-0.41016,-0.02344 -0.625,-0.04297 -0.625,-0.04297"/>
   <path id="svg_132" fill-rule="nonzero" fill="rgb(20.033264%,32.420349%,37.091064%)" d="m157.49219,98.350612c0,0 0.35156,-0.13672 1.03515,-0.36328c0.6836,-0.21875 1.69532,-0.56641 3.0625,-0.72656c1.33594,-0.15235 3.15235,-0.09375 4.79688,1.03515c0.79687,0.55469 1.51953,1.4375 1.71094,2.55469c0.1914,1.08594 -0.04688,2.40235 -0.98438,3.26563c-0.46484,0.42968 -1.10156,0.67187 -1.7539,0.70703c-0.66016,0.02734 -1.32032,-0.1836 -1.91016,-0.51172c-1.17188,-0.67969 -2.12109,-1.84766 -2.55469,-3.23828c-0.46875,-1.375 -0.54687,-2.9336 -0.19531,-4.44141c0.34766,-1.50781 1.17969,-2.95703 2.41016,-4.03906c1.21484,-1.08984 2.80078,-1.83984 4.50781,-2.01563c1.71484,-0.18359 3.45312,0.19141 5.14062,0.66407c1.69532,0.47656 3.39844,1.02343 5.19532,1.24609c1.78906,0.23828 3.64062,0.25 5.48046,0.01172c1.83204,-0.25391 3.64063,-0.6875 5.26954,-1.45703c1.60546,-0.75781 3.0664,-2.01563 3.53515,-3.70313c0.46485,-1.65234 0.02344,-3.53906 -1.17578,-4.6875c-1.19531,-1.17187 -3.09375,-1.32812 -4.51562,-0.66797c-0.71485,0.32422 -1.32813,0.8711 -1.66797,1.5625c-0.35938,0.67969 -0.44922,1.46485 -0.35547,2.20704c0.19531,1.49218 1.08594,2.82031 2.27344,3.58203c1.19531,0.77343 2.58984,1.0664 3.90625,1.09765c1.32812,0.03516 2.59375,-0.20703 3.75,-0.5625c2.33203,-0.71875 4.1875,-2.02343 5.55078,-3.3789c1.38281,-1.35938 2.27734,-2.80078 2.86718,-4.02344c0.60938,-1.22266 0.85547,-2.26172 1.05079,-2.95313c0.13671,-0.70312 0.21875,-1.07421 0.21875,-1.07421c0,0 -0.05469,0.375 -0.17579,1.08203c-0.18359,0.69531 -0.41796,1.74218 -1.01953,2.98047c-0.58203,1.23828 -1.47265,2.6914 -2.85937,4.07031c-1.36328,1.375 -3.23438,2.70312 -5.58594,3.4375c-1.17187,0.36328 -2.45312,0.61328 -3.80078,0.58203c-1.33594,-0.02734 -2.76563,-0.32031 -3.99609,-1.11328c-1.23047,-0.78516 -2.15625,-2.15235 -2.36329,-3.70313c-0.09765,-0.76953 -0.0039,-1.59765 0.375,-2.3164c0.35157,-0.73047 1.00391,-1.3125 1.75391,-1.65235c1.48047,-0.6914 3.46484,-0.53515 4.73047,0.69922c1.26172,1.21094 1.71484,3.16406 1.23437,4.88672c-0.48828,1.76953 -2.0039,3.0625 -3.64062,3.83594c-1.66016,0.78515 -3.48047,1.21875 -5.33203,1.47656c-1.85938,0.24219 -3.72656,0.23047 -5.53516,-0.01562c-1.8164,-0.22266 -3.53515,-0.77735 -5.22265,-1.25391c-1.6836,-0.46875 -3.39063,-0.83984 -5.0625,-0.66406c-1.66407,0.16797 -3.21485,0.90234 -4.40625,1.96484c-2.45313,2.12109 -3.09766,5.60938 -2.17579,8.28125c0.42188,1.35938 1.33594,2.49219 2.46875,3.15234c0.57032,0.32032 1.20313,0.52344 1.82813,0.4961c0.61719,-0.03125 1.21875,-0.25391 1.65625,-0.66016c0.89062,-0.8125 1.14062,-2.08203 0.95703,-3.13281c-0.17969,-1.07813 -0.87109,-1.9375 -1.64844,-2.48438c-1.60156,-1.11328 -3.39453,-1.1875 -4.72265,-1.05078c-1.35547,0.14453 -2.3711,0.48438 -3.0586,0.6875c-0.6875,0.21485 -1.04687,0.32422 -1.04687,0.32422"/>
   <path id="svg_133" fill-rule="nonzero" fill="rgb(9.106445%,15.531921%,18.24646%)" d="m142.75391,240.213892l-29.76172,195.47266l24.71875,3.13672l34.8789,-163.95703l8.78125,165.05859l26.78907,-0.46484l-4.44141,-198.78907l-60.96484,-0.45703"/>
   <path id="svg_134" fill-rule="nonzero" fill="rgb(9.106445%,15.531921%,18.24646%)" d="m172.88672,271.061552l8.95703,168.35547l25.80469,-0.44922l-4.41797,-197.80078l-60.04688,-0.45313l-29.62109,194.54297l23.75391,3.01563l35.57031,-167.21094zm8.00781,169.375l-0.02344,-0.48438l-8.58203,-161.28125l-34.1875,160.70704l-25.67968,-3.25782l29.90234,-196.41015l61.88672,0.46484l4.46094,199.77344l-27.77735,0.48828"/>
   <path id="svg_135" fill-rule="nonzero" fill="rgb(20.033264%,32.420349%,37.091064%)" d="m200.19922,439.143582c-0.14453,0 -0.26172,-39.16406 -0.26172,-87.46484c0,-48.32032 0.11719,-87.47657 0.26172,-87.47657c0.14453,0 0.26172,39.15625 0.26172,87.47657c0,48.30078 -0.11719,87.46484 -0.26172,87.46484"/>
   <path id="svg_136" fill-rule="nonzero" fill="rgb(20.033264%,32.420349%,37.091064%)" d="m132.27344,438.432642c-0.01172,0 0.01172,-0.14843 0.05859,-0.42578c0.05469,-0.30078 0.12891,-0.71094 0.22656,-1.23828c0.21485,-1.11328 0.52344,-2.70703 0.91797,-4.75c0.83203,-4.14453 2.03125,-10.10156 3.50391,-17.44922c3.00391,-14.72265 7.25391,-35.04297 12.13281,-57.44531c4.88281,-22.41016 9.47266,-42.66016 12.8711,-57.29688c1.71484,-7.29687 3.10156,-13.20703 4.07031,-17.32421c0.49219,-2.01954 0.875,-3.60157 1.14062,-4.70313c0.13282,-0.51562 0.23438,-0.92187 0.3125,-1.21875c0.07032,-0.27344 0.10938,-0.41406 0.1211,-0.41016c0.00781,0 -0.01563,0.14454 -0.07032,0.42188c-0.0664,0.30078 -0.15234,0.71094 -0.26171,1.23437c-0.24219,1.10547 -0.59375,2.69141 -1.04297,4.72266c-0.92969,4.125 -2.26563,10.04688 -3.91016,17.35938c-3.30859,14.65625 -7.83594,34.91796 -12.72266,57.32421c-4.8789,22.40235 -9.1875,42.70704 -12.27734,57.41016c-1.54687,7.33594 -2.79687,13.27734 -3.66797,17.41406c-0.4375,2.03516 -0.77734,3.625 -1.01562,4.73438c-0.11719,0.51953 -0.21094,0.92578 -0.27735,1.22656c-0.0625,0.27734 -0.10156,0.41797 -0.10937,0.41406"/>
   <path id="svg_137" fill-rule="nonzero" fill="rgb(20.033264%,32.420349%,37.091064%)" d="m181.37109,274.690462c0,0.03906 -0.40234,0.08984 -1.13281,0.15234c-0.83984,0.05859 -1.87109,0.13281 -3.08594,0.21875c-2.60937,0.17187 -6.21484,0.35156 -10.17578,0.73828c-3.96093,0.39844 -7.53125,0.92578 -10.125,1.26563c-1.21093,0.15625 -2.23437,0.28515 -3.07031,0.39062c-0.72656,0.08203 -1.13281,0.10938 -1.14062,0.07422c-0.00391,-0.03516 0.39062,-0.13281 1.10937,-0.27344c0.71484,-0.14453 1.75781,-0.33203 3.04688,-0.55469c2.57812,-0.43359 6.14843,-1.02343 10.1289,-1.41796c3.98047,-0.39063 7.59375,-0.51172 10.20703,-0.59375c1.3086,-0.03125 2.36719,-0.05079 3.09766,-0.05079c0.73437,0 1.13672,0.01563 1.14062,0.05079"/>
   <path id="svg_138" fill-rule="nonzero" fill="rgb(20.033264%,32.420349%,37.091064%)" d="m204.23828,261.999052c0.00391,0.03125 -0.26562,0.11328 -0.76953,0.19141c-0.5,0.08203 -1.24219,0.14062 -2.15625,0.09765c-1.81641,-0.07422 -4.38672,-0.6875 -6.6875,-2.33594c-2.30078,-1.65625 -3.69922,-3.89843 -4.34766,-5.59375c-0.33203,-0.85546 -0.51562,-1.57421 -0.59765,-2.07421c-0.08203,-0.50391 -0.09375,-0.78516 -0.0625,-0.79297c0.09375,-0.01953 0.26562,1.09765 0.99609,2.72265c0.71875,1.61719 2.11328,3.73047 4.31641,5.3125c2.20312,1.58203 4.64844,2.23047 6.41015,2.39453c1.77344,0.17969 2.88672,-0.01562 2.89844,0.07813"/>
   <path id="svg_139" fill-rule="nonzero" fill="rgb(20.033264%,32.420349%,37.091064%)" d="m137.66406,244.045922l68.47266,-0.21875l-3.74219,-45.1914c-0.41797,-10.33985 -0.35547,-11.57422 -0.60937,-21.1211c0,0 9.72265,11.75391 17.36328,19.9961c4.62109,4.98047 11.94531,6.37109 18.08594,3.46875l40.0039,-27.91016l-7.49219,-19.16406l-36.35546,22.25391c-1.66407,-1.03125 -15.82032,-21.22266 -25.60157,-31.08204c-6.25781,-6.3125 -14.69922,-9.9414 -23.58593,-10.20312c-6.72266,-0.19531 -14.83985,0.11719 -22.08594,0.88672c-11.01563,1.17187 -19.63672,10.02344 -20.5625,21.0625c-0.71094,8.44922 -0.14063,18.26172 -0.14063,34.92969l-3.75,52.29296"/>
   <path id="svg_140" fill-rule="nonzero" fill="rgb(9.106445%,15.531921%,18.24646%)" d="m140.88281,161.393582c0,0 0.01172,0.18359 0.01172,0.52734c-0.0039,0.40625 -0.0039,0.90625 -0.00781,1.51563c-0.01953,1.3125 -0.01953,3.21094 -0.00391,5.5625c0.02344,4.69922 0.21485,11.18359 0.41797,18.35156c0.20313,7.16797 0.23828,13.66406 0.0586,18.36328c-0.08204,2.34766 -0.1836,4.25 -0.29688,5.5586c-0.04687,0.60547 -0.08984,1.10547 -0.12109,1.50781c-0.03125,0.34375 -0.0586,0.52344 -0.0586,0.52344c0,0 0,-0.17969 0.01563,-0.52735c0.02344,-0.40234 0.05078,-0.90234 0.08594,-1.51172c0.08593,-1.30859 0.16406,-3.20703 0.23046,-5.55468c0.14063,-4.69532 0.07813,-11.1875 -0.12109,-18.35547c-0.20312,-7.16406 -0.37109,-13.65625 -0.35937,-18.35547c0.0039,-2.35156 0.02734,-4.25 0.07031,-5.56641c0.01953,-0.60547 0.03515,-1.10547 0.04687,-1.51172c0.01563,-0.34375 0.03125,-0.52734 0.03125,-0.52734"/>
   <path id="svg_141" fill-rule="nonzero" fill="rgb(9.106445%,15.531921%,18.24646%)" d="m231.89453,182.627962c-0.03125,-0.00391 0.02735,-0.36329 0.14063,-0.94141c0.11718,-0.57813 0.28906,-1.37109 0.49609,-2.24609c0.20313,-0.875 0.40234,-1.66797 0.55469,-2.23438c0.14844,-0.56641 0.25781,-0.91406 0.28515,-0.90625c0.02735,0.00781 -0.03125,0.36719 -0.14453,0.94531c-0.11718,0.57813 -0.28906,1.3711 -0.49218,2.24219c-0.20313,0.87109 -0.39844,1.66016 -0.55079,2.23047c-0.15234,0.56641 -0.26171,0.91797 -0.28906,0.91016"/>
   <path id="svg_142" fill-rule="nonzero" fill="rgb(9.106445%,15.531921%,18.24646%)" d="m235.53906,183.190462c-0.05859,0.01171 -0.47265,-1.60157 -0.92968,-3.60157c-0.45704,-2 -0.78125,-3.63281 -0.72266,-3.64843c0.05469,-0.01172 0.46875,1.60156 0.92578,3.60156c0.45703,2.0039 0.78125,3.63672 0.72656,3.64844"/>
   <path id="svg_143" fill-rule="nonzero" fill="rgb(9.106445%,15.531921%,18.24646%)" d="m203.47266,179.213892c0,0 -0.13282,-0.11328 -0.375,-0.34375c-0.28125,-0.27343 -0.625,-0.60937 -1.04297,-1.01562c-0.90235,-0.88672 -2.20703,-2.17188 -3.75781,-3.82031c-1.54688,-1.65235 -3.34766,-3.66407 -5.10938,-6.09375c-1.75,-2.42188 -3.45703,-5.28125 -4.64453,-8.53907c-1.19922,-3.25 -1.71484,-6.58203 -1.53125,-9.58203c0.13672,-2.98828 0.70703,-5.6914 1.72266,-7.73047c0.99609,-2.05859 2.35937,-3.38281 3.36328,-4.13672c0.51562,-0.375 0.92187,-0.64843 1.21875,-0.80468c0.28906,-0.16797 0.44531,-0.2461 0.44531,-0.2461c0.01953,0.03516 -0.61719,0.33985 -1.61328,1.11328c-0.98438,0.76954 -2.3125,2.09766 -3.28125,4.13672c-0.98828,2.02735 -1.53906,4.70313 -1.66406,7.67969c-0.17188,2.97266 0.34375,6.26953 1.53515,9.5c1.17969,3.23438 2.8711,6.07813 4.60547,8.5c1.74609,2.42188 3.53125,4.44141 5.05859,6.10156c1.53907,1.66016 2.82422,2.96094 3.70704,3.86328c0.41015,0.41797 0.74609,0.76172 1.01953,1.04297c0.23047,0.24219 0.34375,0.375 0.34375,0.375"/>
   <path id="svg_144" fill-rule="nonzero" fill="rgb(98.036194%,97.892761%,97.60437%)" d="m158.96484,160.620142c-0.11328,0.08985 -1.16406,-1.05078 -2.35156,-2.54687c-1.18359,-1.49219 -2.05469,-2.77735 -1.9414,-2.86719c0.11328,-0.08984 1.16406,1.05078 2.35156,2.54688c1.18359,1.49218 2.05078,2.77734 1.9414,2.86718"/>
   <path id="svg_145" fill-rule="nonzero" fill="rgb(98.036194%,97.892761%,97.60437%)" d="m174.52344,178.280302c0.10547,0.10156 -1.34766,1.71484 -3.24219,3.60547c-1.89453,1.88672 -3.51172,3.33594 -3.60937,3.23437c-0.10547,-0.10156 1.34765,-1.71484 3.24218,-3.60547c1.89063,-1.88671 3.51172,-3.33593 3.60938,-3.23437"/>
   <path id="svg_146" fill-rule="nonzero" fill="rgb(98.036194%,97.892761%,97.60437%)" d="m189.58594,203.627962c-0.14844,0.04296 -0.69531,-1.5 -1.71094,-3.22657c-1.00391,-1.73047 -2.08203,-2.96484 -1.97266,-3.07031c0.08985,-0.09766 1.37891,1.01172 2.42188,2.80859c1.05469,1.78907 1.39453,3.45704 1.26172,3.48829"/>
   <path id="svg_147" fill-rule="nonzero" fill="rgb(98.036194%,97.892761%,97.60437%)" d="m150.54297,200.756862c-0.12109,0.05469 -1.10547,-2.12109 -1.60547,-5.0039c-0.51172,-2.88282 -0.32812,-5.26172 -0.19531,-5.25391c0.15625,0 0.20703,2.33984 0.70703,5.16406c0.48828,2.82422 1.23828,5.03906 1.09375,5.09375"/>
   <path id="svg_148" fill-rule="nonzero" fill="rgb(98.036194%,97.892761%,97.60437%)" d="m171.27734,211.917022c-0.12109,0.05469 -0.92187,-1.78516 -1.13281,-4.21875c-0.22656,-2.4375 0.23438,-4.38672 0.36328,-4.35547c0.15625,0.02344 -0.0664,1.94922 0.15235,4.30859c0.20312,2.35938 0.76562,4.21875 0.61718,4.26563"/>
   <path id="svg_149" fill-rule="nonzero" fill="rgb(98.036194%,97.892761%,97.60437%)" d="m163.07813,228.135772c-0.07813,0.12109 -2.1836,-1.0586 -4.70313,-2.63281c-2.52344,-1.57813 -4.50391,-2.95313 -4.42969,-3.07422c0.07813,-0.1211 2.1836,1.05468 4.70313,2.63281c2.52344,1.57422 4.5039,2.95312 4.42969,3.07422"/>
   <path id="svg_150" fill-rule="nonzero" fill="rgb(98.036194%,97.892761%,97.60437%)" d="m195.31641,223.338892c0.0625,0.13672 -2.25782,1.28907 -4.94922,2.9961c-2.69531,1.6914 -4.73438,3.29297 -4.83203,3.17187c-0.08985,-0.09765 1.82422,-1.89453 4.55468,-3.61328c2.72657,-1.72656 5.17188,-2.67969 5.22657,-2.55469"/>
   <path id="svg_151" fill-rule="nonzero" fill="rgb(98.036194%,97.892761%,97.60437%)" d="m154.76563,241.667022c-0.02735,0.14062 -2.28516,-0.19141 -5.04297,-0.74219c-2.75782,-0.54687 -4.97266,-1.10937 -4.94532,-1.25c0.03125,-0.14062 2.28907,0.19141 5.04688,0.74219c2.75781,0.55078 4.97266,1.10937 4.94141,1.25"/>
   <path id="svg_152" fill-rule="nonzero" fill="rgb(98.036194%,97.892761%,97.60437%)" d="m176.37891,238.147492c-0.10157,0.08984 -1.33985,-1.20703 -2.37891,-3.13672c-1.05078,-1.92969 -1.46094,-3.67578 -1.32812,-3.71094c0.14453,-0.04687 0.76171,1.58594 1.78515,3.46094c1.01172,1.88281 2.03906,3.29297 1.92188,3.38672"/>
   <path id="svg_153" fill-rule="nonzero" fill="rgb(98.036194%,97.892761%,97.60437%)" d="m200.70313,239.842802c0.10937,0.09375 -0.58985,1.10937 -1.5586,2.26953c-0.96875,1.16016 -1.84375,2.02734 -1.95703,1.93359c-0.10937,-0.08984 0.58594,-1.10546 1.55859,-2.26953c0.96875,-1.16015 1.84766,-2.02734 1.95704,-1.93359"/>
   <path id="svg_154" fill-rule="nonzero" fill="rgb(98.036194%,97.892761%,97.60437%)" d="m156.21484,171.100612c0.08204,0.1211 -0.8125,0.85547 -1.99218,1.64453c-1.1836,0.78907 -2.20703,1.33203 -2.28516,1.21094c-0.07812,-0.11719 0.8125,-0.85547 1.99609,-1.64453c1.17969,-0.78906 2.20313,-1.33203 2.28125,-1.21094"/>
   <path id="svg_155" fill-rule="nonzero" fill="rgb(98.036194%,97.892761%,97.60437%)" d="m173.09375,152.249052c-0.13281,0.04687 -1.02344,-2.23438 -1.80078,-5.14453c-0.78125,-2.91016 -1.15234,-5.32813 -1.01563,-5.35547c0.14454,-0.03125 0.73829,2.32812 1.51954,5.21875c0.76953,2.89453 1.43359,5.23437 1.29687,5.28125"/>
   <path id="svg_156" fill-rule="nonzero" fill="rgb(98.036194%,97.892761%,97.60437%)" d="m189.30078,169.413112c-0.0625,0.13672 -1.52344,-0.42187 -3.39844,-0.77344c-1.875,-0.36718 -3.4375,-0.38281 -3.44531,-0.53515c-0.01172,-0.13281 1.59766,-0.35547 3.54297,0.02344c1.94531,0.36718 3.35938,1.16406 3.30078,1.28515"/>
   <path id="svg_157" fill-rule="nonzero" fill="rgb(98.036194%,97.892761%,97.60437%)" d="m200.4375,154.831082c0.02344,0.13281 -1.69922,0.45703 -3.81641,0.125c-2.11328,-0.32031 -3.66015,-1.14844 -3.60156,-1.26562c0.0586,-0.14454 1.64453,0.44531 3.6836,0.75c2.03515,0.32031 3.72265,0.23828 3.73437,0.39062"/>
   <path id="svg_158" fill-rule="nonzero" fill="rgb(98.036194%,97.892761%,97.60437%)" d="m211.83594,171.096712c-0.13281,0 -0.21875,-2.49219 0.27734,-5.51563c0.48438,-3.02734 1.35156,-5.36328 1.48047,-5.32031c0.14453,0.04297 -0.48828,2.41797 -0.96484,5.40234c-0.48828,2.98047 -0.64063,5.4375 -0.79297,5.4336"/>
   <path id="svg_159" fill-rule="nonzero" fill="rgb(98.036194%,97.892761%,97.60437%)" d="m225.22656,190.245142c-0.10156,0.10157 -1.69531,-1.375 -3.55468,-3.29297c-1.86329,-1.92187 -3.28516,-3.55859 -3.1836,-3.66015c0.10547,-0.09766 1.69531,1.375 3.5586,3.29687c1.85937,1.91797 3.28515,3.5586 3.17968,3.65625"/>
   <path id="svg_160" fill-rule="nonzero" fill="rgb(98.036194%,97.892761%,97.60437%)" d="m236.375,188.776392c0.12109,0.07813 -0.68359,1.53907 -1.79687,3.26953c-1.11329,1.72657 -2.11329,3.0625 -2.23438,2.98438c-0.12109,-0.07813 0.68359,-1.54297 1.79688,-3.26953c1.11328,-1.72656 2.11328,-3.0625 2.23437,-2.98438"/>
   <path id="svg_161" fill-rule="nonzero" fill="rgb(98.036194%,97.892761%,97.60437%)" d="m249.30078,182.475612c-0.1289,0.0625 -1.09765,-1.66015 -2.15625,-3.84765c-1.0664,-2.1875 -1.82031,-4.01172 -1.6914,-4.07422c0.1289,-0.0625 1.09765,1.66015 2.15625,3.84765c1.0625,2.1875 1.82031,4.01172 1.6914,4.07422"/>
   <path id="svg_162" fill-rule="nonzero" fill="rgb(98.036194%,97.892761%,97.60437%)" d="m266.90234,175.190462c-0.02343,0.14453 -2.08203,-0.10157 -4.59375,-0.55079c-2.51171,-0.44531 -4.52734,-0.92187 -4.5,-1.0625c0.02344,-0.14453 2.07813,0.10547 4.59375,0.55079c2.50782,0.44531 4.52735,0.92187 4.5,1.0625"/>
   <path id="svg_163" fill-rule="nonzero" fill="rgb(98.036194%,97.892761%,97.60437%)" d="m127.09766,193.917022c-0.12891,-0.0625 0.70312,-2.10156 1.85547,-4.55469c1.16015,-2.45703 2.19921,-4.39453 2.33203,-4.33594c0.1289,0.0625 -0.70313,2.10157 -1.85938,4.5586c-1.15625,2.45312 -2.19922,4.39453 -2.32812,4.33203"/>
   <path id="svg_164" fill-rule="nonzero" fill="rgb(98.036194%,97.892761%,97.60437%)" d="m136.42969,177.459992c-0.10938,0.09375 -1.46485,-1.24219 -3.03125,-2.98047c-1.56641,-1.7461 -2.7461,-3.23438 -2.64063,-3.33203c0.10547,-0.09375 1.46485,1.23828 3.02735,2.98047c1.5664,1.74218 2.75,3.23437 2.64453,3.33203"/>
   <path id="svg_165" fill-rule="nonzero" fill="rgb(98.036194%,97.892761%,97.60437%)" d="m135.65625,203.893582c0.08984,0.10938 -0.60156,0.83984 -1.54687,1.625c-0.94922,0.78516 -1.78907,1.33594 -1.88282,1.22656c-0.08984,-0.11328 0.60157,-0.83984 1.54688,-1.625c0.94922,-0.78906 1.78906,-1.33593 1.88281,-1.22656"/>
   <path id="svg_166" fill-rule="nonzero" fill="rgb(98.036194%,97.892761%,97.60437%)" d="m138.80469,159.967802c0.11328,0.08984 -0.30469,0.80078 -0.9375,1.58984c-0.62891,0.78516 -1.23047,1.35157 -1.34375,1.26172c-0.11328,-0.08984 0.30859,-0.80078 0.9375,-1.58984c0.63281,-0.78516 1.23437,-1.35156 1.34375,-1.26172"/>
   <path id="svg_167" fill-rule="nonzero" fill="rgb(72.999573%,17.304993%,25.953674%)" d="m202.69141,202.221712l-0.29688,-3.58594c-0.08594,-2.14063 -0.15234,-3.89063 -0.20312,-5.40625l0.16797,0.01953l0.33203,8.97266"/>
   <path id="svg_168" fill-rule="nonzero" fill="rgb(39.593506%,8.354187%,13.577271%)" d="m202.35938,193.249052l-0.16797,-0.01953l0.16797,0.01953"/>
   <path id="svg_169" fill-rule="nonzero" fill="rgb(5.992126%,9.855652%,11.51123%)" d="m202.35938,193.249052l-0.16797,-0.01953c-0.10547,-3.08985 -0.16016,-5.20313 -0.21094,-7.64453c0.03125,0.00781 0.06641,0.01172 0.10156,0.01562l0.27735,7.64844m-0.35547,-9.80859c-0.02735,-0.00782 -0.05078,-0.01172 -0.07422,-0.01563c-0.01953,-0.85937 -0.03906,-1.78516 -0.06641,-2.82422l0.03516,0.00391l0.10547,2.83594"/>
   <path id="svg_170" fill-rule="nonzero" fill="rgb(65.296936%,66.355896%,65.795898%)" d="m202.08203,185.600612c-0.03515,-0.0039 -0.07031,-0.00781 -0.10156,-0.01562c-0.01563,-0.6836 -0.03125,-1.39453 -0.05078,-2.16016c0.02344,0.00391 0.04687,0.00781 0.07422,0.01563l0.07812,2.16015m-0.18359,-4.99609l-0.03516,-0.00391c-0.01953,-0.91015 -0.04687,-1.90234 -0.07812,-3.00781c0.0039,0 0.0039,0 0.0039,0l0.10938,3.01172"/>
   <path id="svg_171" fill-rule="nonzero" fill="rgb(12.586975%,20.770264%,23.950195%)" d="m202.79297,205.042022c-4.18359,-13.14844 -7.42578,-26.94141 -11.58984,-40.10547c0.63671,1.06641 1.30859,2.07031 1.98437,3.00391c1.76172,2.42968 3.5625,4.4414 5.10938,6.09375c1.40625,1.49218 2.60546,2.6875 3.48828,3.55859c0.03125,1.10547 0.05859,2.09766 0.07812,3.00781c0.02735,1.03906 0.04688,1.96485 0.06641,2.82422c0.01953,0.76563 0.03515,1.47656 0.05078,2.16016c0.05078,2.4414 0.10547,4.55468 0.21094,7.64453c0.05078,1.51562 0.11718,3.26562 0.20312,5.40625l0.29688,3.58594l0.10156,2.82031"/>
   <path id="svg_172" fill-rule="nonzero" fill="rgb(5.992126%,9.855652%,11.51123%)" d="m201.78906,177.592802c0,0 0,0 -0.0039,0c-0.88282,-0.87109 -2.08203,-2.06641 -3.48828,-3.55859c-1.54688,-1.65235 -3.34766,-3.66407 -5.10938,-6.09375c-0.67578,-0.9336 -1.34766,-1.9375 -1.98437,-3.00391c-0.04297,-0.14063 -0.08985,-0.28125 -0.13282,-0.42188c3.22657,5.03907 6.79297,9.38282 10.71485,13l0.0039,0.07813"/>
   <path id="svg_173" fill-rule="nonzero" fill="rgb(9.106445%,15.531921%,18.24646%)" d="m122.26172,181.901392c-0.00781,0 0.03906,-0.11328 0.12891,-0.32422c0.11718,-0.26953 0.2539,-0.57031 0.40625,-0.92187c0.35546,-0.80078 0.89062,-1.94531 1.57031,-3.35547c1.35547,-2.82031 3.32031,-6.67187 5.67187,-10.82812c2.35547,-4.15235 4.64844,-7.82032 6.3711,-10.42969c0.85937,-1.3086 1.57031,-2.35547 2.07422,-3.07031c0.21875,-0.31641 0.41015,-0.58594 0.57812,-0.82422c0.13672,-0.1875 0.21094,-0.28125 0.21484,-0.27735c0.00782,0.00391 -0.05468,0.10547 -0.17968,0.30078c-0.16016,0.2461 -0.33985,0.52344 -0.54688,0.84375c-0.53125,0.82032 -1.20703,1.85938 -2.01953,3.10547c-1.6875,2.63282 -3.95703,6.30469 -6.3125,10.45703c-2.34766,4.14844 -4.33203,7.98438 -5.72266,10.78516c-0.64843,1.33594 -1.19531,2.44922 -1.625,3.32813c-0.16796,0.34375 -0.3125,0.64062 -0.4414,0.90234c-0.10547,0.20703 -0.16016,0.3125 -0.16797,0.30859"/>
   <path id="svg_174" fill-rule="nonzero" fill="rgb(9.106445%,15.531921%,18.24646%)" d="m129.00781,169.174832c0.01172,0.03516 -0.42187,0.17188 -1.09375,0.46094c-0.66797,0.28515 -1.57031,0.74219 -2.48047,1.375c-0.91015,0.63672 -1.65234,1.32031 -2.15234,1.85156c-0.50391,0.52734 -0.78516,0.88281 -0.8125,0.86328c-0.01172,-0.00781 0.04688,-0.10547 0.16406,-0.27734c0.11328,-0.17188 0.29688,-0.40625 0.53907,-0.6875c0.47656,-0.5586 1.21484,-1.27735 2.14062,-1.92188c0.92969,-0.64453 1.85938,-1.08593 2.54688,-1.33984c0.34765,-0.12891 0.63281,-0.21875 0.83203,-0.26563c0.19922,-0.05078 0.3125,-0.07031 0.3164,-0.05859"/>
   <path id="svg_175" fill-rule="nonzero" fill="rgb(98.036194%,97.892761%,97.60437%)" d="m129.94922,148.663112c0.11719,0.08594 -1.24609,2.16406 -3.04297,4.64844c-1.79297,2.48437 -3.34375,4.42578 -3.46094,4.34375c-0.11718,-0.08594 1.2461,-2.16406 3.04297,-4.64844c1.79297,-2.48437 3.34375,-4.42578 3.46094,-4.34375"/>
   <path id="svg_176" fill-rule="nonzero" fill="rgb(97.399902%,64.651489%,55.455017%)" d="m137.17188,132.397492c0.95703,0.30468 1.98046,-0.36328 2.53906,-1.19922c0.55859,-0.83985 0.8164,-1.83985 1.3125,-2.71485c1.48828,-2.61328 4.86719,-3.75 6.22656,-6.43359c0.19141,-0.375 0.30469,-0.89453 -0.01953,-1.16016c-0.30078,-0.24609 -0.74609,-0.07812 -1.09375,0.09375c-2.96875,1.48829 -5.9375,2.97657 -8.91016,4.46094"/>
   <path id="svg_177" fill-rule="nonzero" fill="rgb(96.342468%,51.127625%,37.649536%)" d="m137.22656,125.444362c-0.01562,-0.03515 0.3086,-0.23828 0.91407,-0.58203c0.60546,-0.33984 1.49218,-0.81641 2.58984,-1.39453c1.14453,-0.59375 2.44531,-1.26953 3.86719,-2.00391c0.36718,-0.1875 0.74218,-0.3789 1.12109,-0.57422c0.37109,-0.15625 0.78516,-0.51953 1.45313,-0.34765c0.32812,0.10156 0.54687,0.46875 0.54296,0.76953c0.01172,0.30078 -0.07031,0.55859 -0.17968,0.79687c-0.22657,0.44141 -0.48438,0.85157 -0.80078,1.23047c-1.26954,1.51563 -2.86719,2.4336 -4.03907,3.53125c-0.59765,0.53907 -1.09765,1.10938 -1.45312,1.71485c-0.35547,0.60156 -0.58985,1.24218 -0.86719,1.80859c-0.50391,1.16797 -1.39844,1.92188 -2.10937,2.08594c-0.73047,0.1875 -1.11719,-0.07031 -1.09375,-0.08203c0.00781,-0.0586 0.39843,0.10547 1.02343,-0.125c0.62891,-0.22657 1.3711,-0.90625 1.81641,-2.04688c0.24219,-0.55469 0.45312,-1.21094 0.82031,-1.875c0.36719,-0.66797 0.89453,-1.29297 1.50781,-1.86328c1.20313,-1.16016 2.78516,-2.10156 3.95313,-3.51172c0.29297,-0.34375 0.53125,-0.73047 0.73047,-1.10547c0.17969,-0.37109 0.17578,-0.75781 -0.04297,-0.80468c-0.22656,-0.08985 -0.63672,0.11328 -1.01953,0.30859c-0.38281,0.19141 -0.76172,0.375 -1.12891,0.55469c-1.4414,0.69922 -2.76172,1.33593 -3.92578,1.89843c-1.11719,0.53125 -2.02734,0.95313 -2.66406,1.23438c-0.63672,0.28125 -0.9961,0.41797 -1.01563,0.38281"/>
   <path id="svg_178" fill-rule="nonzero" fill="rgb(9.106445%,15.531921%,18.24646%)" d="m353.05078,400.147492l0,8.69531l63.29688,0l0,-8.69531l-63.29688,0"/>
   <path id="svg_179" fill-rule="nonzero" fill="rgb(9.106445%,15.531921%,18.24646%)" d="m353.16016,408.733422l63.07812,0l0,-8.48046l-63.07812,0l0,8.48046zm63.29297,0.21875l-63.51172,0l0,-8.91406l63.51172,0l0,8.91406"/>
   <path id="svg_180" fill-rule="nonzero" fill="rgb(9.106445%,15.531921%,18.24646%)" d="m358.91797,405.948272l9.11328,44.94531l33.70703,0l8.8086,-42.05078l-51.62891,-2.89453"/>
   <path id="svg_181" fill-rule="nonzero" fill="rgb(20.033264%,32.420349%,37.091064%)" d="m358.91797,446.643582l4.85937,6.67969l40.97657,0l5.79297,-6.67969l-51.62891,0"/>
   <path id="svg_182" fill-rule="nonzero" fill="rgb(9.106445%,15.531921%,18.24646%)" d="m382.32031,407.260772c-0.125,0 -0.28515,-20.82031 -0.35547,-46.5c-0.07031,-25.69141 -0.03125,-46.51172 0.09375,-46.51172c0.125,0 0.28516,20.81641 0.35547,46.50781c0.07422,25.6836 0.03125,46.50391 -0.09375,46.50391"/>
   <path id="svg_183" fill-rule="nonzero" fill="rgb(9.106445%,15.531921%,18.24646%)" d="m396.42188,355.151392c0.01171,0.00782 -0.04688,0.17578 -0.17188,0.48438c-0.14844,0.35547 -0.33594,0.80078 -0.5625,1.34765c-0.12891,0.29688 -0.26562,0.6211 -0.41406,0.97266c-0.13281,0.36719 -0.27344,0.76172 -0.42188,1.17969c-0.15234,0.42969 -0.3164,0.8789 -0.48828,1.35937c-0.16797,0.48047 -0.30078,1.00391 -0.46875,1.54297c-0.6914,2.16016 -1.23828,4.80469 -1.76953,7.75c-0.46094,2.96094 -0.80469,6.23828 -0.98047,9.69141c-0.30859,6.91406 0.08203,13.1875 0.5,17.70312c0.20313,2.26172 0.41016,4.08594 0.5586,5.34766c0.0664,0.58984 0.12109,1.07031 0.16015,1.45312c0.03125,0.33204 0.04297,0.50782 0.02735,0.51172c-0.01563,0.00391 -0.05469,-0.16797 -0.11719,-0.5c-0.0625,-0.3789 -0.14453,-0.85547 -0.24219,-1.4414c-0.20703,-1.25391 -0.45703,-3.07813 -0.70312,-5.33985c-0.5,-4.51562 -0.94141,-10.80859 -0.63282,-17.7539c0.17188,-3.47266 0.53516,-6.76563 1.01953,-9.73828c0.55469,-2.96094 1.14063,-5.61719 1.875,-7.77735c0.17579,-0.54297 0.32032,-1.0625 0.50391,-1.54687c0.18359,-0.47266 0.35547,-0.92578 0.51953,-1.34766c0.16406,-0.41797 0.32031,-0.8125 0.46094,-1.17578c0.15625,-0.35547 0.31641,-0.67188 0.44922,-0.96094c0.26172,-0.53515 0.47656,-0.96875 0.64453,-1.3164c0.15234,-0.29688 0.23828,-0.44922 0.25391,-0.44532"/>
   <path id="svg_184" fill-rule="nonzero" fill="rgb(9.106445%,15.531921%,18.24646%)" d="m394.80078,338.311552c0.01563,0.00391 -0.05469,0.24219 -0.19922,0.6875c-0.16406,0.48047 -0.38281,1.125 -0.66015,1.9375c-0.14453,0.42187 -0.3086,0.88672 -0.48438,1.39453c-0.15625,0.51953 -0.32422,1.07813 -0.50781,1.67969c-0.37109,1.20703 -0.80078,2.57422 -1.17969,4.11719c-0.20312,0.76562 -0.41406,1.57031 -0.63672,2.40625c-0.1914,0.84375 -0.38672,1.72265 -0.59375,2.63281c-0.4414,1.8125 -0.76172,3.78125 -1.16797,5.83594c-0.69921,4.13671 -1.3125,8.70703 -1.73437,13.53125c-0.40234,4.82421 -0.57422,9.4375 -0.63672,13.63281c-0.01172,4.19531 0.03906,7.97656 0.21484,11.14844c0.05469,1.58203 0.15625,3.01562 0.23829,4.27343c0.07031,1.26172 0.15234,2.34375 0.23046,3.23047c0.06641,0.85156 0.11719,1.53125 0.15625,2.03906c0.02735,0.46485 0.03907,0.71094 0.02344,0.71485c-0.01562,0 -0.05469,-0.24219 -0.11328,-0.70703c-0.05859,-0.50782 -0.14062,-1.1836 -0.24219,-2.03125c-0.10547,-0.88282 -0.21093,-1.96485 -0.30859,-3.22657c-0.10547,-1.25781 -0.22656,-2.6914 -0.30469,-4.27734c-0.21484,-3.17578 -0.30078,-6.96094 -0.30859,-11.16797c0.03515,-4.20312 0.19922,-8.82812 0.60156,-13.66797c0.42188,-4.83593 1.05078,-9.41797 1.77344,-13.5625c0.42187,-2.0625 0.7539,-4.03515 1.21484,-5.84765c0.21485,-0.91016 0.42188,-1.78907 0.6211,-2.63672c0.23046,-0.83594 0.44921,-1.63672 0.66406,-2.40625c0.40234,-1.53906 0.85547,-2.90625 1.25,-4.10547c0.1914,-0.59766 0.375,-1.16016 0.54297,-1.67578c0.1914,-0.50391 0.36328,-0.96485 0.52343,-1.38672c0.3086,-0.79688 0.55469,-1.43359 0.73829,-1.90625c0.17578,-0.4375 0.27343,-0.66016 0.28515,-0.65625"/>
   <path id="svg_185" fill-rule="nonzero" fill="rgb(9.106445%,15.531921%,18.24646%)" d="m378.31641,410.944362c-0.00782,0 -0.01953,-0.08203 -0.03516,-0.24219c-0.01562,-0.1875 -0.03516,-0.42578 -0.05859,-0.71875c-0.04688,-0.66015 -0.10938,-1.58593 -0.1875,-2.7539c-0.15235,-2.42969 -0.36719,-5.88672 -0.63282,-10.14453c-0.55078,-8.5625 -1.34375,-20.39063 -2.78515,-33.39844c-0.73828,-6.50391 -1.58985,-12.68359 -2.47656,-18.28516c-0.47266,-2.79297 -0.90235,-5.45312 -1.38672,-7.92968c-0.44532,-2.48047 -0.92578,-4.78125 -1.36719,-6.87891c-0.41406,-2.10156 -0.87891,-3.98828 -1.25391,-5.64844c-0.36328,-1.66406 -0.71875,-3.08984 -1.01562,-4.25c-0.28125,-1.14062 -0.5,-2.03906 -0.65625,-2.68359c-0.06641,-0.28906 -0.1211,-0.51953 -0.16016,-0.69922c-0.03515,-0.16016 -0.04687,-0.24219 -0.03906,-0.24609c0.00391,0 0.03516,0.07812 0.08203,0.23046c0.05469,0.17969 0.12109,0.41016 0.20313,0.69141c0.17968,0.64063 0.42578,1.53125 0.73828,2.66016c0.32422,1.16015 0.70312,2.57812 1.09375,4.23828c0.39843,1.65625 0.88281,3.53906 1.32031,5.64062c0.46094,2.09766 0.96094,4.39453 1.42187,6.875c0.5,2.47657 0.94532,5.13672 1.42969,7.9336c0.91016,5.60547 1.77735,11.78906 2.51563,18.30078c1.4414,13.01953 2.18359,24.86328 2.65234,33.42969c0.23438,4.28515 0.39453,7.7539 0.49219,10.15234c0.04297,1.17578 0.07812,2.09766 0.10156,2.76172c0.00781,0.29687 0.01172,0.53125 0.01563,0.71875c0,0.16406 -0.00391,0.24609 -0.01172,0.24609"/>
   <path id="svg_186" fill-rule="nonzero" fill="#d36e1b" d="m381.80469,324.260772c-0.27344,-2.94922 -3.25391,-5.17578 -6.21875,-5.20703c-2.96485,-0.03125 -5.72266,1.74609 -7.53516,4.08984c-1.8125,2.34375 -2.8125,5.20703 -3.6289,8.05469c-1.9961,6.94922 -3.08594,14.25 -2.23438,21.43359c0.85547,7.17969 3.76563,14.2461 8.92188,19.32031c0.83593,0.82422 1.92187,1.64844 3.07031,1.40625c0.6289,-0.13671 1.14453,-0.57421 1.62109,-1.0039c10.1211,-9.14063 15.96485,-22.83594 15.56641,-36.46875c-0.08203,-2.73438 -0.4375,-5.57422 -1.95313,-7.84766c-1.51172,-2.27344 -5.03515,-4.6914 -7.60937,-3.77734"/>
   <path id="svg_187" fill-rule="nonzero" fill="rgb(94.206238%,24.050903%,37.214661%)" d="m359.68359,300.631862c-1.39062,2.51953 -2.78125,5.03906 -4.17187,7.5586c-0.09766,0.17578 -0.22656,0.37109 -0.42969,0.39062c-0.21875,0.01563 -0.38281,-0.19141 -0.5039,-0.375c-3.67579,-5.64453 -7.35157,-11.28516 -11.02735,-16.92969l2.53906,-1.4414l13.59375,10.79687"/>
   <path id="svg_188" fill-rule="nonzero" fill="#b55e17" d="m355.05469,308.581082c-0.20313,0 -0.35938,-0.19922 -0.47656,-0.375c-3.67579,-5.64453 -7.35157,-11.28516 -11.02735,-16.92969l2.53906,-1.4414l13.59375,10.79687c-1.39062,2.51953 -2.78125,5.03906 -4.17187,7.5586c-0.09766,0.17578 -0.22656,0.37109 -0.42969,0.39062c-0.00781,0 -0.01562,0 -0.02734,0"/>
   <path id="svg_189" fill-rule="nonzero" fill="#d36e1b" d="m382.05859,314.249052c-12.54296,-7.40234 -25.08593,-14.80469 -37.6289,-22.20313c-0.38281,-0.23046 -0.80078,-0.49609 -0.91797,-0.92578c-0.14844,-0.55859 0.26953,-1.09375 0.67187,-1.50781c5.17579,-5.33984 12.69141,-8.43359 20.10938,-7.90234c7.41797,0.53515 14.55078,4.82031 18.17969,11.30859c3.63281,6.48828 3.7539,15.07031 -0.41407,21.23047"/>
   <path id="svg_190" fill-rule="nonzero" fill="rgb(9.106445%,15.531921%,18.24646%)" d="m349.85156,284.956082c0,-0.01562 0.16797,-0.03516 0.49219,-0.0625c0.32422,-0.01562 0.80469,-0.07422 1.42188,-0.06641c1.23828,-0.03125 3.03515,0.05079 5.22265,0.41407c2.1875,0.35937 4.75391,1.0625 7.4375,2.25781c2.67969,1.19141 5.45313,2.91406 7.98047,5.17969c2.50391,2.28906 4.5,4.8789 5.94922,7.42578c1.46094,2.55078 2.41406,5.03515 2.98828,7.17578c0.58203,2.14062 0.83984,3.92187 0.93359,5.15234c0.07032,0.61719 0.04297,0.77344 0.0586,1.09766c0.00781,0.32812 -0.27344,0.82031 -0.28906,0.82422c-0.04297,0 0.20703,-0.67969 0.05859,-1.90235c-0.14844,-1.21875 -0.45313,-2.97656 -1.06641,-5.08593c-1.1914,-4.1875 -3.95312,-9.83985 -8.93359,-14.35157c-4.98828,-4.50781 -10.88281,-6.69531 -15.17188,-7.46093c-2.16015,-0.39844 -3.9414,-0.52735 -5.16796,-0.55078c-1.23047,-0.02735 -1.91016,-0.00782 -1.91407,-0.04688"/>
   <path id="svg_191" fill-rule="nonzero" fill="rgb(9.106445%,15.531921%,18.24646%)" d="m376.96484,298.924832c0.02344,0.05469 -0.70312,0.39063 -1.90234,0.86328c-1.19922,0.47266 -2.87109,1.07813 -4.74609,1.67188c-1.875,0.59375 -3.59375,1.0664 -4.84375,1.375c-1.25391,0.30468 -2.03907,0.44922 -2.05469,0.39062c-0.01563,-0.0625 0.74219,-0.3125 1.96875,-0.69922c1.38672,-0.43359 3.00391,-0.9375 4.79297,-1.49609c1.78125,-0.57422 3.39453,-1.09766 4.77734,-1.54297c1.22266,-0.39453 1.98828,-0.625 2.00781,-0.5625"/>
   <path id="svg_192" fill-rule="nonzero" fill="rgb(9.106445%,15.531921%,18.24646%)" d="m371.03906,283.006862c0.1211,-0.01172 0.39063,1.86328 0.44532,4.19531c0.0625,2.33594 -0.10938,4.22266 -0.23047,4.21875c-0.12891,-0.00781 -0.16016,-1.88671 -0.21875,-4.20703c-0.0586,-2.3164 -0.1211,-4.19531 0.0039,-4.20703"/>
   <path id="svg_193" fill-rule="nonzero" fill="rgb(9.106445%,15.531921%,18.24646%)" d="m344.10156,291.624052c-0.01953,-0.05859 1.02344,-0.4375 2.73047,-0.96094c1.71094,-0.52734 4.09375,-1.19531 6.7461,-1.83594c2.65625,-0.64062 5.07812,-1.1289 6.83984,-1.4375c1.76562,-0.3125 2.86328,-0.44921 2.87109,-0.39062c0.01563,0.0625 -1.0625,0.3125 -2.80859,0.70312c-1.74219,0.38672 -4.14844,0.92579 -6.79688,1.5625c-2.64843,0.63672 -5.03515,1.25782 -6.76171,1.70313c-1.73047,0.44922 -2.80469,0.71875 -2.82032,0.65625"/>
   <path id="svg_194" fill-rule="nonzero" fill="#d36e1b" d="m366.1875,317.858422c-3.23828,-2.45312 -6.66016,-2.9375 -10.71875,-2.77343c-4.05859,0.16015 -8.00781,1.39453 -11.73047,3.02343c-6.34375,2.78125 -12.30859,6.875 -16.10156,12.67579c-3.78906,5.79687 -5.10938,13.47265 -2.27344,19.79296c0.28516,0.62891 0.65235,1.28516 1.28906,1.5586c0.66797,0.28515 1.4336,0.0625 2.1211,-0.16406c7.21875,-2.35547 14.48828,-4.73047 21.12109,-8.41797c6.63672,-3.6875 12.67578,-8.8125 16.23828,-15.51563c0.85547,-1.60937 1.57032,-3.33203 1.71094,-5.14844c0.13672,-1.8164 -0.36328,-3.74609 -1.65625,-5.03125"/>
   <path id="svg_195" fill-rule="nonzero" fill="rgb(9.106445%,15.531921%,18.24646%)" d="m366.25,317.096712c0.00391,0.01562 -0.17578,0.08984 -0.51953,0.21093c-0.39063,0.13672 -0.89063,0.3086 -1.51172,0.52344c-0.33203,0.10938 -0.69922,0.23047 -1.09375,0.36328c-0.39844,0.14453 -0.82031,0.32031 -1.28125,0.4961c-0.91406,0.37109 -1.97266,0.74218 -3.08984,1.28125c-0.5625,0.25781 -1.15235,0.52734 -1.76953,0.80468c-0.61329,0.28516 -1.22657,0.63282 -1.875,0.96485c-1.3086,0.64453 -2.62891,1.46484 -4.03907,2.29687c-2.76562,1.75 -5.69531,3.85547 -8.54687,6.33594c-2.82422,2.51172 -5.28906,5.14844 -7.375,7.67187c-1.00391,1.28907 -1.98828,2.5 -2.79297,3.71485c-0.41016,0.60156 -0.83203,1.16406 -1.19141,1.73828c-0.35547,0.57422 -0.69922,1.125 -1.02734,1.64844c-0.67969,1.03906 -1.17969,2.04297 -1.66016,2.90234c-0.23828,0.43359 -0.46484,0.83203 -0.66015,1.20703c-0.17969,0.375 -0.34766,0.72266 -0.5,1.03906c-0.28907,0.58985 -0.52735,1.0625 -0.70703,1.4336c-0.16797,0.32422 -0.26172,0.49609 -0.27735,0.48828c-0.01172,-0.00781 0.05469,-0.1875 0.19141,-0.52734c0.16406,-0.37891 0.375,-0.86329 0.63281,-1.46875c0.14453,-0.32422 0.30078,-0.67579 0.46875,-1.0586c0.18359,-0.38672 0.40234,-0.78906 0.625,-1.23047c0.46484,-0.87109 0.94922,-1.89062 1.61328,-2.94531c0.32422,-0.53516 0.65625,-1.09375 1.00781,-1.67578c0.35157,-0.58203 0.77344,-1.15234 1.17969,-1.76563c0.79297,-1.23046 1.77344,-2.45703 2.77344,-3.76171c2.08203,-2.55469 4.55469,-5.21875 7.40234,-7.75c2.8711,-2.5 5.82813,-4.60938 8.625,-6.35157c1.42578,-0.82812 2.76172,-1.64062 4.08594,-2.27343c0.65625,-0.32422 1.27734,-0.66797 1.89844,-0.94532c0.62109,-0.27343 1.21875,-0.53125 1.79297,-0.78125c1.1289,-0.52734 2.20312,-0.8789 3.1289,-1.22656c0.46485,-0.16797 0.89453,-0.33203 1.29688,-0.46484c0.39844,-0.11719 0.76953,-0.22657 1.10937,-0.32813c0.63282,-0.17969 1.14453,-0.32812 1.53907,-0.4414c0.35546,-0.09375 0.54296,-0.13672 0.54687,-0.125"/>
   <path id="svg_196" fill-rule="nonzero" fill="rgb(9.106445%,15.531921%,18.24646%)" d="m340.96484,330.788112c0.03516,0.1211 -3.48828,1.25781 -7.87109,2.53906c-4.38281,1.28125 -7.96484,2.22266 -8,2.10157c-0.03516,-0.11719 3.48828,-1.25391 7.87109,-2.53516c4.38282,-1.28125 7.96485,-2.22266 8,-2.10547"/>
   <path id="svg_197" fill-rule="nonzero" fill="rgb(9.106445%,15.531921%,18.24646%)" d="m340.64063,348.163112c-0.0625,0 -0.12891,-0.9375 -0.17188,-2.45312c-0.04297,-1.51953 -0.04687,-3.61328 0.01563,-5.92578c0.0664,-2.31641 0.1875,-4.41016 0.3164,-5.92188c0.125,-1.51172 0.25,-2.44141 0.3086,-2.4375c0.0625,0.00391 0.05078,0.94141 0.00781,2.45703c-0.05078,1.66016 -0.11328,3.67969 -0.17969,5.91406c-0.05859,2.23047 -0.10937,4.25 -0.15234,5.91407c-0.03907,1.51562 -0.08203,2.45312 -0.14453,2.45312"/>
   <path id="svg_198" fill-rule="nonzero" fill="rgb(9.106445%,15.531921%,18.24646%)" d="m355.52344,340.581082c-0.125,0.00781 -0.51953,-4.25 -0.88281,-9.51562c-0.36329,-5.26172 -0.5586,-9.53516 -0.4336,-9.54297c0.1211,-0.00782 0.51953,4.25 0.88281,9.51172c0.36329,5.26562 0.5586,9.53906 0.4336,9.54687"/>
   <path id="svg_199" fill-rule="nonzero" fill="rgb(9.106445%,15.531921%,18.24646%)" d="m337,321.108422c0.00391,-0.0625 0.96484,-0.08593 2.52344,-0.07812c1.55469,0.01172 3.70312,0.05859 6.07422,0.13672c2.37109,0.07812 4.51562,0.17578 6.07031,0.26562c1.55469,0.09375 2.51562,0.17969 2.51562,0.24219c-0.0039,0.0625 -0.96484,0.08984 -2.52343,0.07813c-1.55469,-0.01172 -3.70313,-0.0586 -6.07813,-0.13672c-2.37109,-0.07813 -4.51953,-0.17578 -6.07422,-0.26563c-1.55468,-0.09375 -2.51172,-0.17969 -2.50781,-0.24219"/>
   <path id="svg_200" fill-rule="nonzero" fill="rgb(9.106445%,15.531921%,18.24646%)" d="m372.72266,372.940462c-0.01563,0 -0.03516,-0.17188 -0.05469,-0.5c-0.01563,-0.38282 -0.03906,-0.85938 -0.06641,-1.44922c-0.05859,-1.25782 -0.07031,-3.08203 -0.02343,-5.33203c0.04296,-2.25 0.19531,-4.92579 0.46484,-7.89063c0.29687,-2.96484 0.71875,-6.21094 1.32422,-9.59766c0.625,-3.38281 1.37109,-6.57421 2.14453,-9.45703c0.78906,-2.87109 1.59375,-5.4375 2.34766,-7.5664c0.74609,-2.125 1.40234,-3.83203 1.89843,-4.99219c0.23438,-0.54297 0.42188,-0.98438 0.57032,-1.33594c0.13671,-0.30078 0.21484,-0.46094 0.23046,-0.45312c0.01563,0.0039 -0.03515,0.17187 -0.14453,0.48828c-0.1289,0.35547 -0.29297,0.80859 -0.49218,1.36328c-0.44532,1.17578 -1.05469,2.89453 -1.76172,5.03125c-0.71485,2.13281 -1.48047,4.69922 -2.25,7.57031c-0.74219,2.875 -1.47657,6.0586 -2.09766,9.42969c-0.60547,3.37109 -1.03906,6.60547 -1.35547,9.55859c-0.29297,2.95313 -0.47656,5.6211 -0.55859,7.86328c-0.08985,2.24219 -0.125,4.0625 -0.1211,5.31641c-0.00781,0.58984 -0.01562,1.07031 -0.01953,1.44922c-0.00781,0.33203 -0.01953,0.50391 -0.03515,0.50391"/>
   <path id="svg_201" fill-rule="nonzero" fill="rgb(9.106445%,15.531921%,18.24646%)" d="m374.70703,348.303742c0.04297,0.04297 -0.52734,0.67578 -1.5039,1.64843c-0.97266,0.96875 -2.35157,2.27344 -3.92969,3.65625c-1.57813,1.38282 -3.05078,2.58204 -4.14063,3.42188c-1.09375,0.83594 -1.79297,1.32031 -1.83203,1.26953c-0.03906,-0.04687 0.59375,-0.61719 1.62891,-1.51953c1.15625,-1.00391 2.52734,-2.19531 4.04687,-3.51172c1.50391,-1.33203 2.86328,-2.53516 4.01172,-3.55078c1.02735,-0.91016 1.67188,-1.46094 1.71875,-1.41406"/>
   <path id="svg_202" fill-rule="nonzero" fill="rgb(9.106445%,15.531921%,18.24646%)" d="m386.61719,357.897492c-0.05469,0.03515 -0.64844,-0.82032 -1.59766,-2.21485c-1.03125,-1.5 -2.30469,-3.36328 -3.71875,-5.42578c-1.4414,-2.04297 -2.74609,-3.88672 -3.79687,-5.375c-0.97657,-1.37109 -1.57032,-2.23047 -1.51953,-2.26562c0.04687,-0.03907 0.73046,0.75 1.77734,2.07422c1.04297,1.32812 2.4375,3.19531 3.91016,5.30859c1.46875,2.11328 2.73437,4.07422 3.61328,5.51172c0.88281,1.4375 1.38281,2.35547 1.33203,2.38672"/>
   <path id="svg_203" fill-rule="nonzero" fill="rgb(9.106445%,15.531921%,18.24646%)" d="m380.37891,327.721712c0.0664,0.10546 -3.89063,2.76953 -8.83985,5.94921c-4.94531,3.1836 -9.01172,5.67579 -9.07812,5.57032c-0.06641,-0.10547 3.88672,-2.76563 8.83594,-5.94922c4.94531,-3.17969 9.01562,-5.67188 9.08203,-5.57031"/>
   <path id="svg_204" fill-rule="nonzero" fill="rgb(9.106445%,15.531921%,18.24646%)" d="m391.53516,339.764672c-0.08594,0.08985 -2.76563,-2.38671 -5.98438,-5.53125c-3.21875,-3.14453 -5.75781,-5.76171 -5.67187,-5.85156c0.08984,-0.08984 2.76953,2.38672 5.98437,5.53125c3.21875,3.14063 5.75781,5.76172 5.67188,5.85156"/>
   <path id="svg_205" fill-rule="nonzero" fill="#d36e1b" d="m394.33984,339.522492l3.39844,-0.28125c2.41016,-0.19922 4.75,-0.91407 6.85938,-2.09766c1.03906,-0.58594 2.08593,-1.16016 3.19531,-1.60547c4.19922,-1.6875 8.88672,-1.38672 13.40625,-1.61328c7.375,-0.37109 14.67187,-2.23437 21.32031,-5.45312c0.38672,-0.1836 0.72266,-0.46875 0.92969,-0.83985c0.69922,-1.27344 -0.59766,-2.40625 -1.71094,-3.08984c-5.72265,-3.52735 -11.55078,-7.10156 -18.03906,-8.85156c-6.48828,-1.75 -13.85547,-1.45313 -19.39063,2.35937c-6.5,4.47266 -8.87109,13.66016 -9.96875,21.47266"/>
   <path id="svg_206" fill-rule="nonzero" fill="rgb(9.106445%,15.531921%,18.24646%)" d="m443.52734,327.213892c-0.00781,0.01172 -0.20703,-0.08203 -0.57812,-0.26953c-0.40625,-0.21484 -0.94141,-0.49219 -1.60938,-0.84375c-1.39453,-0.73437 -3.40625,-1.8164 -5.94531,-3.03515c-2.54297,-1.20704 -5.62109,-2.56641 -9.20312,-3.54688c-3.57032,-0.99219 -7.6875,-1.51172 -11.92969,-0.96875c-4.23047,0.55859 -8.12109,2.20313 -10.875,4.67188c-2.77344,2.46093 -4.46875,5.42968 -5.66406,7.95312c-1.19532,2.54688 -1.92969,4.71094 -2.46485,6.19531c-0.25,0.71094 -0.45312,1.27735 -0.60547,1.71094c-0.14062,0.39063 -0.22265,0.59375 -0.23828,0.58984c-0.01172,-0.0039 0.03907,-0.21875 0.15235,-0.61718c0.13281,-0.44141 0.30468,-1.01953 0.52343,-1.74219c0.48438,-1.5 1.17579,-3.6875 2.34375,-6.26953c1.16797,-2.5625 2.85157,-5.59375 5.67579,-8.13281c2.80859,-2.54688 6.78906,-4.23829 11.08984,-4.80469c4.32031,-0.55469 8.50391,-0.01172 12.10156,1.01172c3.61328,1.01562 6.69922,2.41797 9.23047,3.66015c2.53516,1.26172 4.52344,2.39063 5.89453,3.17188c0.64844,0.3789 1.17188,0.68359 1.56641,0.91797c0.35937,0.21484 0.54297,0.33203 0.53515,0.34765"/>
   <path id="svg_207" fill-rule="nonzero" fill="rgb(9.106445%,15.531921%,18.24646%)" d="m435.36719,331.596712c-0.06641,0.10156 -4.50781,-2.77344 -9.91797,-6.41797c-5.41406,-3.65235 -9.74219,-6.69141 -9.67188,-6.79297c0.07032,-0.10547 4.51172,2.76953 9.92188,6.41797c5.41016,3.64843 9.73828,6.6875 9.66797,6.79297"/>
   <path id="svg_208" fill-rule="nonzero" fill="rgb(9.106445%,15.531921%,18.24646%)" d="m430.63281,318.151392c0.01953,0.09766 -1.41797,0.4336 -3.23437,0.58203c-1.82031,0.15235 -3.30078,0.0586 -3.30078,-0.04296c0,-0.10938 1.46484,-0.1836 3.26172,-0.33204c1.79296,-0.14843 3.25,-0.3125 3.27343,-0.20703"/>
   <path id="svg_209" fill-rule="nonzero" fill="rgb(9.106445%,15.531921%,18.24646%)" d="m411.18359,315.616242c0.10547,0.05078 -0.54296,1.07031 -1.45703,2.27734c-0.91015,1.20703 -1.73828,2.14844 -1.84375,2.09766c-0.10937,-0.05078 0.54297,-1.07032 1.45703,-2.27735c0.91016,-1.20703 1.73829,-2.14843 1.84375,-2.09765"/>
   <path id="svg_210" fill-rule="nonzero" fill="rgb(9.106445%,15.531921%,18.24646%)" d="m415.16406,334.209992c-0.03125,0.05078 -0.85547,-0.37891 -2.13672,-1.15625c-1.28515,-0.78125 -3.01953,-1.92188 -4.87109,-3.26563c-1.85156,-1.34765 -3.48828,-2.61719 -4.66016,-3.55078c-1.17187,-0.93359 -1.88281,-1.53125 -1.84375,-1.58203c0.03516,-0.04688 0.8125,0.46094 2.03516,1.32812c1.33203,0.96875 2.94531,2.14063 4.73438,3.4375c1.84765,1.34375 3.54296,2.51954 4.77734,3.36329c1.23437,0.84375 2,1.37109 1.96484,1.42578"/>
   <path id="svg_211" fill-rule="nonzero" fill="#d36e1b" d="m399.34375,353.952172c-3.24219,-0.85546 -7.10547,2.29688 -7.76953,5.57813c-0.66797,3.28516 0.5625,6.64453 2.00391,9.66797c3.1914,6.69922 7.59765,12.90625 13.39843,17.53125c5.80078,4.62109 13.06641,7.57812 20.48438,7.53906c-1.3711,-6.35937 0.36328,-13.00391 -0.40235,-19.46875c-0.66406,-5.64062 -3.29687,-11.03125 -7.33203,-15.02734c-4.03515,-3.9961 -9.45312,-6.57032 -15.09765,-7.17969c-2.07032,-0.22266 -4.46485,-0.54688 -5.28516,1.35937"/>
   <path id="svg_212" fill-rule="nonzero" fill="rgb(9.106445%,15.531921%,18.24646%)" d="m427.46094,394.268582c-0.00781,0.01563 -0.16406,-0.05859 -0.46094,-0.21094c-0.29297,-0.16015 -0.71484,-0.41797 -1.21484,-0.8164c-1.01563,-0.76953 -2.17969,-2.25782 -3.19532,-4.27735c-0.51953,-1.0039 -1.09765,-2.08984 -1.66015,-3.29687c-0.54688,-1.21094 -1.12891,-2.5 -1.74219,-3.85156c-0.61719,-1.35157 -1.29687,-2.75391 -2.14062,-4.1211c-0.84375,-1.36719 -1.83985,-2.70703 -2.94922,-4.00781c-2.21875,-2.60547 -4.59766,-4.85938 -6.66016,-7.01172c-2.07422,-2.14844 -3.82031,-4.21094 -5.07812,-6.09375c-1.27344,-1.875 -2.04297,-3.55859 -2.48438,-4.74219c-0.20703,-0.59375 -0.35547,-1.0625 -0.42969,-1.38672c-0.08203,-0.32421 -0.12109,-0.49609 -0.10156,-0.5c0.03906,-0.01171 0.22266,0.66407 0.69531,1.82422c0.48438,1.15625 1.28907,2.79297 2.58203,4.6211c1.28125,1.84375 3.03125,3.86718 5.11329,5.98828c2.07421,2.1289 4.46484,4.3789 6.70703,7.00781c1.12109,1.31641 2.13281,2.67578 2.98047,4.07031c0.85546,1.39453 1.53125,2.81641 2.14453,4.17969c0.59765,1.35938 1.16797,2.65234 1.70312,3.86719c0.54297,1.19922 1.10547,2.30078 1.60156,3.30859c0.97657,2.02344 2.06641,3.48828 3.03125,4.28906c0.94532,0.81641 1.58594,1.11719 1.5586,1.16016"/>
   <path id="svg_213" fill-rule="nonzero" fill="rgb(9.106445%,15.531921%,18.24646%)" d="m410.70703,388.983422c-0.05859,-0.01171 0.04297,-0.84765 0.29688,-2.17968c0.2539,-1.33594 0.67187,-3.16797 1.23047,-5.16016c0.5625,-1.99609 1.16406,-3.77734 1.64453,-5.04687c0.48047,-1.26954 0.82812,-2.03516 0.88672,-2.01563c0.05859,0.02344 -0.1836,0.82422 -0.58594,2.11719c-0.39844,1.29297 -0.94922,3.07812 -1.51172,5.0664c-0.55859,1.98438 -1.01953,3.79688 -1.35156,5.10938c-0.33203,1.30859 -0.54688,2.12109 -0.60938,2.10937"/>
   <path id="svg_214" fill-rule="nonzero" fill="rgb(9.106445%,15.531921%,18.24646%)" d="m426.84766,373.370142c-0.02344,0.0586 -0.88672,-0.16015 -2.28516,-0.52734c-1.39453,-0.36328 -3.32422,-0.86328 -5.46484,-1.34766c-2.14844,-0.48047 -4.10547,-0.85547 -5.51953,-1.125c-1.41797,-0.26953 -2.29688,-0.4414 -2.28907,-0.5039c0.00782,-0.0586 0.90235,0 2.33985,0.1875c1.43359,0.1914 3.41015,0.51953 5.5664,1.0039c2.15625,0.48438 4.08203,1.03516 5.45703,1.48047c1.37891,0.44531 2.21094,0.77344 2.19532,0.83203"/>
   <path id="svg_215" fill-rule="nonzero" fill="rgb(9.106445%,15.531921%,18.24646%)" d="m398.68359,377.905302c-0.05859,-0.01172 0.06641,-0.97656 0.35157,-2.52344c0.28515,-1.54687 0.73828,-3.67187 1.34375,-5.99609c0.60937,-2.32031 1.25,-4.40235 1.75781,-5.88672c0.50781,-1.49219 0.87109,-2.39453 0.92969,-2.375c0.05859,0.01953 -0.19532,0.95703 -0.625,2.46875c-0.42969,1.50781 -1.01953,3.59375 -1.625,5.90625c-0.60547,2.31641 -1.10547,4.42187 -1.46875,5.94922c-0.36328,1.52734 -0.60157,2.46875 -0.66407,2.45703"/>
   <path id="svg_216" fill-rule="nonzero" fill="rgb(9.106445%,15.531921%,18.24646%)" d="m419.41406,359.760772c-0.01172,0.125 -4.05859,-0.20313 -9.03125,-0.73438c-4.97656,-0.52343 -9,-1.05468 -8.98828,-1.17578c0.01172,-0.125 4.0586,0.20313 9.03516,0.73047c4.97265,0.52734 8.99609,1.05469 8.98437,1.17969"/>
   <path id="svg_217" fill-rule="nonzero" fill="rgb(20.033264%,32.420349%,37.091064%)" d="m416.44922,408.807642c0,0.125 -14.21484,0.22266 -31.75,0.22266c-17.53906,0 -31.75391,-0.09766 -31.75391,-0.22266c0,-0.125 14.21485,-0.22656 31.75391,-0.22656c17.53516,0 31.75,0.10156 31.75,0.22656"/>
   <path id="svg_218" fill-rule="nonzero" fill="rgb(20.033264%,32.420349%,37.091064%)" d="m406.55859,427.100612c0,0.125 -9.57812,0.22656 -21.39453,0.22656c-11.8164,0 -21.39062,-0.10156 -21.39062,-0.22656c0,-0.12109 9.57422,-0.22265 21.39062,-0.22265c11.81641,0 21.39453,0.10156 21.39453,0.22265"/>
   <path id="svg_219" fill-rule="nonzero" fill="rgb(20.033264%,32.420349%,37.091064%)" d="m406.1875,429.717802c0,0.125 -9.41016,0.22656 -21.01953,0.22656c-11.61328,0 -21.02344,-0.10156 -21.02344,-0.22656c0,-0.125 9.41016,-0.22656 21.02344,-0.22656c11.60937,0 21.01953,0.10156 21.01953,0.22656"/>
   <path id="svg_220" fill-rule="nonzero" fill="rgb(20.033264%,32.420349%,37.091064%)" d="m406.93359,424.948272c0,0.12109 -9.91015,0.22265 -22.1289,0.22265c-12.22266,0 -22.12891,-0.10156 -22.12891,-0.22265c0,-0.125 9.90625,-0.22656 22.12891,-0.22656c12.21875,0 22.1289,0.10156 22.1289,0.22656"/>
  </g>
 </g>
</svg>